<svg width="1049" height="992" viewBox="0 0 1049 992" fill="none" xmlns="http://www.w3.org/2000/svg">
<path d="M985 515C985 778.44 771.44 992 508 992C244.56 992 31 778.44 31 515C31 251.56 244.56 38 508 38C771.44 38 985 251.56 985 515Z" fill="black"/>
<path d="M463.214 168.184C468.387 168.184 473.561 168.184 478.892 168.184C492.457 193.759 492.457 193.759 498.667 206.31C502.994 215.05 507.486 223.693 512.029 232.322C521.513 250.364 530.574 268.615 539.634 286.873C545.98 299.641 552.463 312.32 559.138 324.92C565.423 336.806 571.429 348.826 577.413 360.865C578.488 363.021 579.562 365.176 580.637 367.332C582.75 371.57 584.861 375.808 586.971 380.047C591.79 389.724 596.628 399.39 601.465 409.058C602.668 411.463 603.87 413.868 605.073 416.273C605.55 417.228 606.028 418.184 606.52 419.168C608.636 423.399 610.751 427.631 612.867 431.862C619.719 427.493 626.267 422.943 632.554 417.787C638.935 412.603 645.56 408.01 652.446 403.523C655.596 401.459 658.701 399.374 661.788 397.221C698.758 371.617 738.703 354.631 782.474 344.92C783.609 344.667 784.744 344.414 785.914 344.154C807.998 340.202 837.127 341.761 857.017 353.204C864.906 358.717 873.891 365.19 876.542 374.851C877.655 385.22 878.395 396.126 872.734 405.294C865.792 413.869 857.62 419.684 846.539 420.961C835.663 421.438 829.314 420.175 820.957 413.333C818.053 411.039 815.145 408.751 812.227 406.474C811.441 405.86 810.655 405.245 809.845 404.612C784.062 384.774 759.173 380.652 726.889 383.402C716.073 385.067 705.79 388.199 695.533 391.954C693.993 392.514 693.993 392.514 692.421 393.086C665.531 403.206 640.795 419.56 618.568 437.563C619.399 442.538 620.677 446.586 622.938 451.087C623.548 452.312 624.159 453.537 624.787 454.799C625.452 456.111 626.117 457.423 626.802 458.776C627.494 460.156 628.186 461.537 628.899 462.96C630.37 465.893 631.845 468.823 633.324 471.751C635.537 476.135 637.739 480.524 639.939 484.915C646.445 497.876 653.018 510.794 659.818 523.604C669.557 541.963 678.711 560.618 687.96 579.228C696.169 595.737 704.414 612.211 713.065 628.494C721.285 644.017 729.009 659.794 736.82 675.525C744.586 691.155 752.441 706.72 760.618 722.14C764.774 729.992 768.755 737.901 772.498 745.96C773.021 747.07 773.545 748.179 774.084 749.323C776.578 754.637 778.865 759.919 781.049 765.379C752.829 765.379 724.608 765.379 695.533 765.379C682.716 742.949 682.716 742.949 678.508 734.374C678.047 733.44 677.586 732.506 677.111 731.544C676.14 729.576 675.171 727.606 674.206 725.635C670.062 717.179 665.874 708.745 661.69 700.309C660.618 698.144 659.549 695.976 658.483 693.808C648.346 673.193 637.558 652.859 624.002 634.253C623.284 633.252 622.565 632.251 621.825 631.22C614.594 621.194 607.427 611.594 598.614 602.897C597.213 601.466 595.814 600.033 594.416 598.598C571.901 575.62 544.082 552.024 513.098 541.609C509.346 541.852 507.933 542.548 505.159 545.067C504.428 545.954 503.696 546.842 502.943 547.756C501.653 549.299 501.653 549.299 500.337 550.874C498.893 552.637 498.893 552.637 497.42 554.437C496.31 555.76 495.201 557.083 494.057 558.445C488.198 565.433 482.407 572.473 476.665 579.558C471.468 585.927 466.068 592.068 460.53 598.142C457.811 601.142 455.16 604.188 452.524 607.262C447.885 612.598 442.906 617.534 437.865 622.489C433.927 626.496 430.314 630.727 426.741 635.06C426.078 635.735 425.415 636.409 424.731 637.104C423.791 637.104 422.85 637.104 421.881 637.104C421.881 638.044 421.881 638.985 421.881 639.954C419.787 642.014 419.787 642.014 416.892 644.408C410.616 649.745 404.842 655.455 399.076 661.333C391.742 668.811 384.234 675.907 376.272 682.713C374.713 684.067 373.154 685.422 371.595 686.777C276.994 768.473 276.994 768.473 220.17 764.42C212.235 763.373 206.019 760.054 199.538 755.402C198.691 754.857 197.844 754.311 196.972 753.749C190.042 748.753 185.522 741.121 181.01 734.023C180.144 732.708 180.144 732.708 179.262 731.367C168.424 712.713 168.71 685.887 173.913 665.77C180.131 644.269 192.639 623.87 207.834 607.651C210.596 604.691 213.174 601.651 215.751 598.532C221.943 591.463 229.169 585.81 236.595 580.092C237.405 579.468 238.214 578.845 239.048 578.203C265.439 558.007 294.878 541.077 326.387 530.207C327.838 529.696 327.838 529.696 329.318 529.176C342.413 524.647 355.528 520.951 369.146 518.359C370.336 518.132 371.526 517.906 372.752 517.672C389.319 514.696 405.889 514.139 422.682 514.083C424.316 514.078 424.316 514.078 425.983 514.072C452.34 514.062 477.994 517.291 503.327 524.745C507.045 525.828 510.717 526.66 514.523 527.356C515.552 526.092 516.581 524.828 517.641 523.526C522.743 517.258 528.652 511.791 534.511 506.244C536.578 504.255 538.646 502.266 540.713 500.276C541.78 499.28 542.848 498.284 543.947 497.258C544.949 496.285 545.95 495.311 546.982 494.308C547.899 493.435 548.817 492.562 549.762 491.663C551.901 488.969 551.901 488.969 551.454 485.584C549.836 480.803 547.701 476.398 545.378 471.932C544.336 469.888 543.294 467.844 542.254 465.8C541.689 464.698 541.125 463.596 540.544 462.461C537.308 456.105 534.145 449.712 530.97 443.326C529.578 440.535 528.186 437.745 526.794 434.955C524.67 430.698 522.546 426.44 520.426 422.181C512.729 406.722 504.946 391.323 496.855 376.066C490.63 364.302 484.71 352.391 478.802 340.466C471.928 326.591 464.979 312.773 457.674 299.119C452.641 289.707 447.884 280.165 443.152 270.599C441.858 268 440.544 265.412 439.223 262.826C438.439 261.285 437.654 259.743 436.846 258.155C436.155 256.807 435.464 255.458 434.753 254.069C433.283 250.851 433.283 250.851 433.283 248C432.342 248 431.401 248 430.432 248C429.688 240.009 432.075 235.203 435.777 228.402C439.641 221.16 442.982 213.932 445.964 206.283C448.957 198.871 452.374 191.648 455.731 184.397C456.453 182.829 457.175 181.262 457.919 179.648C459.681 175.825 461.447 172.004 463.214 168.184Z" fill="#F2E8DF"/>
<path d="M426.245 523.882C427.323 523.886 428.4 523.889 429.51 523.892C454.812 524.016 479.218 527.283 503.121 535.908C503.121 541.549 501.343 542.56 497.509 546.598C492.779 551.682 488.292 556.841 483.969 562.276C478.551 568.98 472.709 575.019 466.548 581.038C462.742 584.839 459.263 588.84 455.77 592.925C452.905 596.143 449.889 599.159 446.823 602.184C442.91 606.044 439.165 609.94 435.599 614.121C431.298 619.12 426.779 623.861 422.148 628.552C421.12 629.607 421.12 629.607 420.072 630.683C418.355 632.405 416.56 634.049 414.754 635.678C413.813 635.678 412.873 635.678 411.904 635.678C411.588 636.474 411.271 637.269 410.946 638.089C408.455 642.418 405.304 645.098 401.57 648.417C400.014 649.809 398.459 651.203 396.905 652.598C396.091 653.325 395.278 654.053 394.44 654.802C391.955 657.052 389.514 659.342 387.084 661.651C375.906 672.257 364.319 681.961 352.042 691.264C350.184 692.689 348.327 694.115 346.469 695.54C340.777 699.887 335.021 704.143 329.238 708.368C328.354 709.021 327.471 709.674 326.561 710.347C307.879 724.036 289.378 733.398 265.813 733.578C264.537 733.588 263.261 733.598 261.946 733.609C248.779 733.245 237.329 728.934 227.693 719.842C215.337 705.395 214.289 688.051 215.216 669.885C215.769 664.983 216.739 660.38 218.067 655.632C218.432 654.306 218.798 652.979 219.175 651.612C232.876 606.568 269.968 576.141 309.757 554.337C331.723 542.726 354.795 533.866 379.122 528.782C381.607 528.233 381.607 528.233 384.141 527.673C398.253 524.683 411.843 523.762 426.245 523.882Z" fill="#010101"/>
<path d="M554.431 493.149C558.707 494.575 558.707 494.575 561.218 498.901C562.147 500.807 563.061 502.721 563.962 504.641C564.979 506.738 565.996 508.835 567.013 510.932C567.786 512.545 567.786 512.545 568.575 514.19C570.911 519.047 573.313 523.871 575.721 528.693C576.178 529.614 576.635 530.536 577.105 531.486C579.686 536.663 582.356 541.777 585.13 546.854C585.729 547.956 586.328 549.059 586.945 550.195C588.112 552.331 589.291 554.461 590.483 556.583C591.876 559.137 593.121 561.771 594.339 564.414C593.868 565.825 593.398 567.236 592.913 568.69C592.116 568.102 591.319 567.514 590.497 566.908C565.923 548.428 565.923 548.428 537.523 540.29C531.781 541.328 527.963 542.626 523.075 545.885C519.739 544.923 516.754 543.53 513.599 542.088C510.022 541.207 510.022 541.207 506.651 543.886C503.158 547.274 500.092 550.718 497.064 554.526C495.95 555.913 494.837 557.3 493.69 558.729C492.569 560.135 491.448 561.54 490.294 562.988C473.364 583.864 456.243 604.583 436.98 623.374C433.389 627.053 430.121 631.004 426.841 634.96C425.797 636.021 425.797 636.021 424.731 637.103C423.791 637.103 422.85 637.103 421.881 637.103C421.881 638.044 421.881 638.985 421.881 639.954C419.787 642.014 419.787 642.014 416.892 644.408C410.616 649.745 404.842 655.455 399.076 661.333C391.742 668.811 384.234 675.907 376.272 682.713C374.713 684.067 373.154 685.421 371.595 686.777C276.994 768.473 276.994 768.473 220.17 764.42C212.235 763.373 206.019 760.054 199.538 755.402C198.691 754.857 197.844 754.311 196.972 753.749C190.042 748.753 185.522 741.121 181.01 734.023C180.433 733.147 179.856 732.27 179.262 731.367C168.424 712.712 168.71 685.887 173.913 665.77C180.131 644.268 192.639 623.87 207.834 607.651C210.596 604.691 213.174 601.651 215.751 598.532C221.943 591.463 229.169 585.81 236.595 580.092C237.809 579.157 237.809 579.157 239.048 578.202C265.439 558.007 294.878 541.077 326.387 530.207C327.354 529.867 328.321 529.526 329.318 529.176C342.413 524.647 355.528 520.951 369.146 518.359C370.336 518.132 371.526 517.906 372.752 517.672C389.319 514.696 405.889 514.139 422.682 514.083C424.316 514.078 424.316 514.078 425.983 514.072C452.34 514.062 477.994 517.291 503.327 524.745C507.045 525.828 510.717 526.66 514.523 527.356C515.552 526.092 516.581 524.828 517.641 523.526C521.14 519.332 524.866 515.497 528.776 511.678C530.827 509.631 532.875 507.582 534.923 505.532C536.674 503.78 538.426 502.028 540.178 500.276C541.589 501.217 543 502.157 544.454 503.126C546.526 501.451 546.526 501.451 548.641 499.741C549.807 498.799 549.807 498.799 550.996 497.837C553.195 496.048 553.195 496.048 554.431 493.149ZM367.72 531.632C366.694 531.899 365.667 532.165 364.61 532.439C313.03 545.85 258.6 577.674 230.933 624.528C223.08 638.468 216.107 653.724 215.216 669.885C215.124 671.474 215.033 673.064 214.938 674.701C214.448 690.62 216.415 706.139 226.947 718.751C239.62 731.033 252.617 733.357 269.64 733.413C290.924 732.925 308.115 723.672 324.962 711.218C327.338 709.573 329.713 707.927 332.089 706.281C348.537 694.781 364.102 682.005 378.883 668.437C381.857 665.715 384.886 663.073 387.941 660.443C392.497 656.483 396.746 652.303 400.964 647.988C403.293 645.713 405.709 643.677 408.251 641.647C409.457 640.618 410.662 639.589 411.904 638.529C411.904 637.588 411.904 636.647 411.904 635.678C412.744 635.302 413.584 634.925 414.449 634.538C417.725 632.762 419.87 630.91 422.488 628.273C423.383 627.376 424.278 626.479 425.201 625.554C426.6 624.128 426.6 624.128 428.027 622.672C428.989 621.701 429.951 620.73 430.942 619.729C436.392 614.195 441.667 608.577 446.678 602.64C449.446 599.495 452.392 596.575 455.375 593.632C460.113 588.95 464.562 584.143 468.898 579.09C472.624 574.835 476.47 570.697 480.317 566.552C493.37 552.689 493.37 552.689 504.546 537.333C495.527 532.974 486.332 530.547 476.575 528.514C474.867 528.158 474.867 528.158 473.125 527.795C438.614 520.863 401.541 522.189 367.72 531.632Z" fill="#F0E7DF"/>
<path d="M554.431 493.149C558.707 494.575 558.707 494.575 561.218 498.901C562.147 500.807 563.061 502.721 563.962 504.641C564.979 506.738 565.996 508.835 567.013 510.932C567.529 512.007 568.044 513.083 568.575 514.19C570.911 519.047 573.313 523.871 575.721 528.693C576.178 529.614 576.635 530.536 577.105 531.486C579.686 536.663 582.356 541.777 585.13 546.854C586.029 548.508 586.029 548.508 586.945 550.195C588.112 552.331 589.29 554.461 590.483 556.583C591.876 559.137 593.121 561.771 594.339 564.414C593.868 565.825 593.398 567.236 592.913 568.69C592.116 568.102 591.319 567.514 590.497 566.908C565.923 548.428 565.923 548.428 537.523 540.29C531.781 541.328 527.963 542.626 523.075 545.885C519.739 544.923 516.754 543.53 513.599 542.088C510.022 541.207 510.022 541.207 506.651 543.886C503.158 547.274 500.092 550.718 497.064 554.526C495.95 555.913 494.837 557.3 493.69 558.729C492.569 560.135 491.448 561.54 490.294 562.988C476.048 580.555 461.527 597.749 446.11 614.299C445.17 613.828 444.229 613.358 443.26 612.874C442.319 613.814 441.378 614.755 440.409 615.724C439.073 612.812 439.073 612.812 438.984 608.598C441.823 604.636 445.388 601.471 448.961 598.175C450.962 596.257 452.961 594.336 454.957 592.413C455.864 591.558 456.772 590.704 457.706 589.823C461.276 586.323 464.548 582.606 467.773 578.789C471.377 574.615 475.139 570.592 478.892 566.552C491.945 552.689 491.945 552.689 503.121 537.333C460.261 521.867 411.443 520.849 367.72 533.057C366.694 533.324 365.667 533.59 364.61 533.865C321.161 545.161 280.175 568.806 249.423 601.471C248.012 601.001 246.601 600.531 245.147 600.046C245.617 598.165 246.088 596.283 246.572 594.345C250.1 593.639 250.1 593.639 253.699 592.92C253.699 591.979 253.699 591.038 253.699 590.069C254.639 590.069 255.58 590.069 256.549 590.069C256.053 587.253 256.053 587.253 255.124 584.368C254.183 583.897 253.243 583.427 252.273 582.943C251.383 580.003 251.383 580.003 250.848 577.241C249.907 578.182 248.967 579.123 247.998 580.092C247.457 576.228 247.457 576.228 247.998 571.54C250.899 568.781 253.272 566.99 256.638 564.948C258.038 564.059 258.038 564.059 259.466 563.151C272.062 555.341 285.31 548.628 298.552 541.994C301.456 540.536 304.343 539.052 307.224 537.55C342.729 519.892 383.482 514.213 422.682 514.083C424.316 514.078 424.316 514.078 425.983 514.072C452.34 514.062 477.994 517.291 503.327 524.745C507.045 525.828 510.717 526.66 514.523 527.356C515.552 526.092 516.581 524.828 517.641 523.526C521.14 519.332 524.866 515.497 528.776 511.678C530.827 509.631 532.876 507.582 534.923 505.532C536.674 503.78 538.426 502.028 540.178 500.276C541.589 501.217 543 502.157 544.454 503.126C545.836 502.009 547.217 500.892 548.641 499.741C549.418 499.113 550.195 498.485 550.996 497.837C553.195 496.048 553.195 496.048 554.431 493.149ZM253.699 574.391C255.124 577.241 255.124 577.241 255.124 577.241L253.699 574.391Z" fill="#EDE5DE"/>
<path d="M554.431 493.149C558.706 494.575 558.706 494.575 561.217 498.901C562.146 500.807 563.06 502.721 563.962 504.641C564.979 506.738 565.996 508.835 567.013 510.932C567.528 512.007 568.044 513.083 568.575 514.19C570.911 519.047 573.312 523.871 575.721 528.693C576.177 529.614 576.634 530.536 577.105 531.486C579.686 536.663 582.356 541.777 585.13 546.854C585.729 547.956 586.328 549.059 586.945 550.195C588.111 552.331 589.29 554.461 590.482 556.583C591.876 559.137 593.12 561.771 594.338 564.414C593.868 565.825 593.398 567.236 592.913 568.69C592.116 568.102 591.318 567.514 590.497 566.908C568.685 551.198 545.306 540.917 520.224 531.632C522.124 527.396 524.191 524.485 527.518 521.26C528.383 520.41 529.248 519.56 530.14 518.685C531.042 517.813 531.944 516.941 532.873 516.043C538.536 510.538 543.901 505.125 548.73 498.851C550.604 496.924 552.496 495.015 554.431 493.149Z" fill="#080706"/>
<path d="M540.178 500.276C541.589 502.157 543 504.039 544.454 505.977C543.77 506.653 543.087 507.329 542.383 508.025C539.298 511.08 536.219 514.141 533.141 517.201C532.065 518.265 530.989 519.329 529.881 520.425C528.857 521.444 527.832 522.464 526.777 523.515C525.829 524.455 524.881 525.396 523.904 526.365C521.533 528.677 521.533 528.677 520.224 531.632C521.165 531.779 522.105 531.926 523.075 532.078C528.545 533.331 533.523 535.295 538.753 537.333C538.282 538.274 537.812 539.215 537.327 540.184C534.011 541.167 530.685 542.115 527.35 543.034C525.939 543.975 524.528 544.916 523.075 545.885C519.739 544.923 516.754 543.53 513.599 542.088C510.022 541.207 510.022 541.207 506.651 543.886C503.158 547.275 500.092 550.718 497.063 554.526C495.95 555.913 494.837 557.3 493.689 558.729C492.569 560.135 491.448 561.54 490.293 562.989C476.047 580.555 461.527 597.749 446.11 614.299C445.169 613.829 444.229 613.358 443.259 612.874C441.848 614.285 441.848 614.285 440.409 615.724C439.073 612.812 439.073 612.812 438.984 608.598C441.823 604.636 445.388 601.471 448.96 598.175C450.961 596.257 452.96 594.336 454.957 592.413C455.864 591.558 456.771 590.704 457.706 589.823C461.276 586.323 464.548 582.606 467.773 578.789C471.377 574.615 475.139 570.592 478.891 566.552C491.944 552.689 491.944 552.689 503.121 537.333C474.55 527.024 444.892 524.928 414.754 524.506C414.754 524.035 414.754 523.565 414.754 523.08C429.57 522.375 429.57 522.375 444.685 521.655C444.685 521.185 444.685 520.714 444.685 520.23C447.507 519.76 450.329 519.289 453.236 518.805C452.766 517.864 452.296 516.923 451.811 515.954C472.905 516.407 494.379 521.256 514.523 527.356C515.552 526.092 516.581 524.828 517.641 523.526C521.14 519.332 524.866 515.497 528.776 511.678C530.826 509.631 532.875 507.582 534.922 505.532C536.674 503.78 538.426 502.028 540.178 500.276Z" fill="#E6E2DD"/>
<path d="M451.811 515.954C467.451 516.516 482.205 519.626 497.42 523.081C496.714 523.668 496.009 524.256 495.282 524.862C492.525 527.53 492.525 527.53 493.144 533.058C492.297 532.892 491.45 532.727 490.577 532.557C486.683 531.799 482.787 531.048 478.891 530.296C477.559 530.036 476.227 529.776 474.855 529.508C460.679 526.782 446.99 525.613 432.57 525.129C430.854 525.068 429.138 525.006 427.37 524.943C423.165 524.793 418.959 524.647 414.754 524.506C414.754 524.035 414.754 523.565 414.754 523.081C429.57 522.375 429.57 522.375 444.685 521.655C444.685 521.185 444.685 520.715 444.685 520.23C447.507 519.76 450.329 519.289 453.236 518.805C452.766 517.864 452.296 516.923 451.811 515.954Z" fill="#DBD6D0"/>
<path d="M396.226 517.379C397.901 517.644 399.577 517.908 401.303 518.181C402.45 518.387 403.596 518.593 404.777 518.805C403.808 522.24 403.808 522.24 401.927 525.931C398.662 527.309 398.662 527.309 394.628 527.974C393.177 528.221 391.727 528.469 390.232 528.723C388.712 528.948 387.192 529.173 385.625 529.405C384.11 529.669 382.595 529.932 381.035 530.204C369.737 532.026 369.737 532.026 364.87 528.782C365.722 528.429 366.575 528.076 367.453 527.713C370.979 525.698 372.614 523.579 374.847 520.23C372.965 519.76 371.084 519.289 369.145 518.805C378.662 516.401 386.557 515.685 396.226 517.379Z" fill="#E4DCD5"/>
<path d="M652.774 403.356C654.185 405.238 655.596 407.119 657.05 409.057C652.738 413.583 647.746 416.802 642.53 420.193C634.811 425.267 627.297 430.473 619.993 436.138C618.582 434.257 617.171 432.375 615.717 430.437C627.667 420.89 640.047 411.841 652.774 403.356Z" fill="#E0DBD6"/>
<path d="M726.889 364.874C725.467 369.14 724.391 370.5 721.188 373.425C724.715 374.131 724.715 374.131 728.314 374.851C728.314 375.791 728.314 376.732 728.314 377.701C729.725 378.642 731.136 379.583 732.59 380.552C724.129 383.999 715.93 386.111 706.935 387.678C706.935 386.738 706.935 385.797 706.935 384.828C710.698 383.417 714.46 382.006 718.337 380.552C718.337 380.081 718.337 379.611 718.337 379.126C715.985 378.656 713.634 378.186 711.211 377.701C711.681 376.761 712.151 375.82 712.636 374.851C707.933 375.321 703.229 375.791 698.383 376.276C706.781 369.978 715.942 363.433 726.889 364.874Z" fill="#E7DFD8"/>
<path d="M303.583 722.621C304.524 723.561 305.464 724.502 306.434 725.471C303.612 725.942 300.79 726.412 297.882 726.896C296.319 734.942 296.319 734.942 299.307 742.575C289.43 747.513 289.43 747.513 279.353 752.552C278.413 751.611 277.472 750.67 276.503 749.701C278.384 748.29 280.266 746.879 282.204 745.425C280.793 744.955 279.382 744.485 277.928 744C278.869 744 279.81 744 280.779 744C281.249 742.589 281.719 741.178 282.204 739.724C283.615 740.194 285.026 740.665 286.48 741.149C288.562 737.376 289.33 735.599 289.33 731.172C287.919 730.702 286.508 730.232 285.055 729.747C291.169 727.395 297.283 725.044 303.583 722.621Z" fill="#EAE1DB"/>
<path d="M562.982 548.736C563.923 549.676 564.864 550.617 565.833 551.586C561.895 552.438 558.478 553.012 554.431 553.012C554.901 554.423 555.371 555.834 555.856 557.287C560.848 559.733 560.848 559.733 565.833 561.563C565.362 563.445 564.892 565.326 564.407 567.264C565.348 567.264 566.289 567.264 567.258 567.264C566.788 569.146 566.317 571.027 565.833 572.966C563.305 571.159 560.782 569.347 558.261 567.532C556.855 566.523 555.45 565.514 554.002 564.475C551.009 562.21 548.415 560.032 545.879 557.287C546.82 554.936 547.76 552.584 548.729 550.161C547.789 549.691 546.848 549.22 545.879 548.736C548.97 549.457 551.58 550.161 554.431 551.586C554.431 550.646 554.431 549.705 554.431 548.736C553.49 548.265 552.549 547.795 551.58 547.31C556.786 545.575 558.178 546.395 562.982 548.736Z" fill="#E9E1DA"/>
<path d="M647.073 671.31C652.274 677.909 655.831 685.229 659.633 692.69C660.386 694.112 661.138 695.534 661.913 696.999C662.611 698.369 663.308 699.74 664.026 701.152C664.671 702.4 665.315 703.647 665.979 704.933C667.027 708.368 667.027 708.368 665.789 711.669C665.257 712.461 664.725 713.253 664.176 714.069C661.326 708.368 658.475 702.667 655.625 696.965C654.684 697.906 653.743 698.847 652.774 699.816C652.635 698.82 652.495 697.824 652.351 696.798C652.138 695.501 651.925 694.204 651.705 692.868C651.507 691.578 651.308 690.288 651.104 688.959C650.238 685.332 650.238 685.332 646.962 683.681C646.058 683.362 645.154 683.042 644.223 682.713C645.634 682.242 647.045 681.772 648.498 681.287C648.028 677.995 647.558 674.702 647.073 671.31Z" fill="#1A1613"/>
<path d="M743.992 692.69C747.71 697.399 750.74 702.35 753.701 707.566C754.622 709.152 755.542 710.737 756.491 712.371C758.244 716.92 758.244 716.92 757.103 721.067C756.539 722.05 755.975 723.033 755.394 724.046C754.453 722.165 753.512 720.283 752.543 718.345C749.721 718.345 746.899 718.345 743.992 718.345C743.101 714.336 743.101 714.336 742.566 709.793C743.507 708.382 744.448 706.971 745.417 705.517C744.947 704.106 744.476 702.695 743.992 701.241C742.378 695.917 742.378 695.917 743.992 692.69Z" fill="#E9E0D9"/>
<path d="M344.916 527.356C339.272 530.178 339.272 530.178 333.514 533.057C334.925 534.469 336.336 535.88 337.79 537.333C337.79 538.744 337.79 540.155 337.79 541.609C334.968 543.02 334.968 543.02 332.089 544.46C331.765 543.343 331.442 542.226 331.109 541.075C329.52 537.149 329.52 537.149 326.031 535.106C321.794 534.015 321.794 534.015 317.39 537.155C316.126 538.155 314.862 539.154 313.56 540.184C311.679 539.243 309.797 538.303 307.859 537.333C334.009 524.63 334.009 524.63 344.916 527.356Z" fill="#E5DFD9"/>
<path d="M504.546 524.506C512.64 527.865 512.64 527.865 514.523 531.632C511.701 533.043 511.701 533.043 508.822 534.483C508.822 534.953 508.822 535.423 508.822 535.908C501.664 536.329 497.569 535.887 491.719 531.632C492.253 528.871 492.253 528.871 493.144 525.931C497.179 523.913 500.058 524.161 504.546 524.506Z" fill="#E7E1DB"/>
<path d="M714.061 374.851C715.472 375.791 716.883 376.732 718.337 377.701C720.218 378.642 722.1 379.582 724.038 380.552C718.394 381.963 712.75 383.374 706.935 384.828C706.935 385.768 706.935 386.709 706.935 387.678C705.054 387.208 703.172 386.737 701.234 386.253C701.704 385.312 702.175 384.371 702.659 383.402C701.248 382.932 699.837 382.462 698.383 381.977C698.383 380.096 698.383 378.214 698.383 376.276C709.164 372.751 709.164 372.751 714.061 374.851Z" fill="#F4EAE1"/>
<path d="M718.337 641.379C722.972 646.818 725.629 653.114 728.581 659.552C729.106 660.682 729.63 661.812 730.171 662.976C731.458 665.751 732.737 668.53 734.015 671.31C733.074 671.781 732.134 672.251 731.164 672.736C731.164 671.325 731.164 669.914 731.164 668.46C727.872 669.871 724.58 671.282 721.187 672.736C721.481 671.06 721.775 669.385 722.078 667.658C722.828 661.614 722.007 657.082 719.762 651.356C717.656 648.646 717.656 648.646 715.486 647.081C716.427 645.199 717.368 643.318 718.337 641.379Z" fill="#E1D9D2"/>
<path d="M440.409 618.575C440.409 622.372 440.278 625.021 438.984 628.552C437.572 629.022 436.161 629.492 434.708 629.977C434.237 632.799 433.767 635.621 433.282 638.529C431.401 638.058 429.52 637.588 427.581 637.103C426.641 639.455 425.7 641.807 424.731 644.23C423.79 644.23 422.849 644.23 421.88 644.23C421.41 646.582 420.94 648.933 420.455 651.356C417.694 650.911 417.694 650.911 414.754 649.931C414.284 648.52 413.813 647.109 413.329 645.655C415.167 643.695 417.073 641.796 419.03 639.954C419.97 639.954 420.911 639.954 421.88 639.954C421.88 639.013 421.88 638.073 421.88 637.103C423.762 635.305 423.762 635.305 426.334 633.273C431.684 628.86 436.06 623.958 440.409 618.575Z" fill="#1E1815"/>
<path d="M582.936 544.46C585.581 548.427 587.982 552.426 590.329 556.575C591.114 557.942 591.899 559.309 592.707 560.717C594.338 564.414 594.338 564.414 592.913 568.69C590.655 567.117 588.399 565.543 586.143 563.968C584.886 563.092 583.629 562.216 582.335 561.313C579.167 559.071 576.049 556.783 572.959 554.437C574.84 553.966 576.722 553.496 578.66 553.011C578.66 552.071 578.66 551.13 578.66 550.161C579.601 549.691 580.541 549.22 581.511 548.736C581.981 547.325 582.451 545.914 582.936 544.46Z" fill="#0C0B0B"/>
<path d="M798.152 397.655C804.115 398.451 808.167 401.994 812.761 405.583C813.551 406.189 814.341 406.794 815.155 407.418C817.095 408.906 819.027 410.406 820.957 411.908C820.045 412.32 819.134 412.731 818.195 413.155C815.039 414.514 815.039 414.514 813.83 417.609C812.89 417.609 811.949 417.609 810.98 417.609C810.686 416.492 810.392 415.375 810.089 414.224C808.405 410.042 808.405 410.042 803.675 408.612C802.323 408.289 800.971 407.965 799.578 407.632C799.107 404.34 798.637 401.047 798.152 397.655Z" fill="#110E0F"/>
<path d="M289.33 731.172C289.33 732.583 289.33 733.994 289.33 735.448C290.741 735.919 292.152 736.389 293.606 736.874C290.31 739.813 290.31 739.813 286.48 742.575C285.068 742.104 283.657 741.634 282.204 741.149C281.733 742.09 281.263 743.031 280.778 744C279.838 744 278.897 744 277.928 744C277.928 743.059 277.928 742.119 277.928 741.149C276.987 740.679 276.047 740.209 275.077 739.724C276.018 739.254 276.959 738.783 277.928 738.299C273.707 736.188 269.611 736.37 264.922 736.072C263.096 735.952 261.27 735.833 259.388 735.71C257.277 735.58 257.277 735.58 255.124 735.448C255.124 734.978 255.124 734.508 255.124 734.023C257.339 733.893 257.339 733.893 259.6 733.761C261.552 733.641 263.504 733.52 265.457 733.399C266.429 733.343 267.401 733.287 268.402 733.23C275.541 732.779 282.188 730.974 289.33 731.172Z" fill="#F6EDE6"/>
<path d="M329.238 706.943C330.178 707.883 331.119 708.824 332.088 709.793C329.266 714.026 329.266 714.026 326.387 718.345C327.328 719.285 328.268 720.226 329.238 721.195C325.945 723.547 322.653 725.899 319.261 728.322C316.41 722.977 316.41 722.977 316.41 719.77C315.469 718.829 314.529 717.889 313.56 716.92C318.733 713.627 323.907 710.335 329.238 706.943Z" fill="#E3DAD3"/>
<path d="M807.683 343.316C809.244 343.329 810.805 343.342 812.413 343.355C816.211 343.388 820.009 343.435 823.807 343.494C823.807 343.965 823.807 344.435 823.807 344.92C822.951 344.991 822.095 345.062 821.213 345.136C817.355 345.466 813.499 345.816 809.643 346.167C808.296 346.279 806.948 346.391 805.559 346.506C804.278 346.626 802.997 346.745 801.676 346.868C799.896 347.025 799.896 347.025 798.08 347.185C797.163 347.378 796.246 347.571 795.301 347.77C794.831 348.711 794.361 349.652 793.876 350.621C791.618 350.457 789.362 350.275 787.106 350.086C785.849 349.987 784.593 349.888 783.298 349.786C779.611 349.193 777.191 348.076 773.922 346.345C785.295 343.832 796.059 343.131 807.683 343.316Z" fill="#C3BEBA"/>
<path d="M451.811 515.954C457.925 516.424 464.04 516.895 470.34 517.379C466.539 519.28 462.738 521.18 458.937 523.081C459.878 524.021 460.819 524.962 461.788 525.931C446.267 525.461 430.745 524.99 414.754 524.506C414.754 524.035 414.754 523.565 414.754 523.081C429.57 522.375 429.57 522.375 444.685 521.655C444.685 521.185 444.685 520.715 444.685 520.23C447.507 519.76 450.329 519.289 453.236 518.805C452.766 517.864 452.296 516.923 451.811 515.954Z" fill="#C4BFBA"/>
<path d="M769.663 343.221C772.602 343.757 772.602 343.757 775.348 342.069C775.348 343.01 775.348 343.95 775.348 344.92C777.7 344.92 780.051 344.92 782.474 344.92C782.474 345.39 782.474 345.86 782.474 346.345C778.558 347.341 774.639 348.318 770.716 349.284C769.608 349.568 768.5 349.852 767.358 350.145C766.284 350.406 765.209 350.668 764.102 350.938C763.116 351.184 762.131 351.431 761.116 351.684C757.887 352.091 755.627 351.591 752.543 350.621C752.543 348.739 752.543 346.858 752.543 344.92C758.6 341.598 763.102 342.174 769.663 343.221Z" fill="#0E0C0C"/>
<path d="M339.215 712.644C340.703 717.11 340.546 718.33 339.215 722.621C340.155 722.621 341.096 722.621 342.065 722.621C342.065 724.502 342.065 726.383 342.065 728.322C341.205 728.202 340.345 728.083 339.46 727.96C338.32 727.815 337.181 727.67 336.008 727.52C334.883 727.371 333.759 727.222 332.6 727.069C329.23 726.896 326.742 727.329 323.537 728.322C323.537 726.911 323.537 725.5 323.537 724.046C326.966 721.134 326.966 721.134 331.376 718.078C333.558 716.548 333.558 716.548 335.785 714.988C336.917 714.214 338.049 713.441 339.215 712.644Z" fill="#111010"/>
<path d="M411.904 637.104C415.431 638.515 415.431 638.515 419.03 639.954C413.412 646.91 407.458 652.864 400.501 658.483C401.001 657.366 401.501 656.249 402.016 655.098C402.457 653.863 402.898 652.628 403.352 651.356C402.882 650.416 402.411 649.475 401.927 648.506C403.895 642.602 407.055 640.92 411.904 637.104Z" fill="#F4EBE3"/>
<path d="M450.386 597.195C452.267 599.547 454.149 601.899 456.087 604.322C452.795 607.614 449.502 610.907 446.11 614.299C445.17 613.828 444.229 613.358 443.26 612.873C442.319 613.814 441.378 614.755 440.409 615.724C439.346 612.545 439.346 612.545 438.984 608.598C441.339 605.407 441.339 605.407 444.596 602.451C445.667 601.457 446.738 600.463 447.842 599.439C448.681 598.699 449.521 597.958 450.386 597.195Z" fill="#E5DDD8"/>
<path d="M604.315 416.184C606.197 416.654 608.078 417.125 610.017 417.609C610.017 418.55 610.017 419.491 610.017 420.46C610.957 420.46 611.898 420.46 612.867 420.46C612.867 421.4 612.867 422.341 612.867 423.31C616.63 422.84 620.392 422.37 624.269 421.885C624.269 423.296 624.269 424.707 624.269 426.161C621.775 428.137 621.775 428.137 618.568 429.991C616.687 431.079 614.805 432.167 612.867 433.287C610.045 427.643 607.223 421.999 604.315 416.184Z" fill="#121212"/>
<path d="M233.744 575.816C234.685 576.287 235.626 576.757 236.595 577.241C236.115 581.46 235.276 582.843 232.113 585.793C230.858 586.734 229.603 587.675 228.31 588.644C223.603 592.204 219.301 595.78 215.216 600.046C214.325 597.374 214.325 597.374 213.791 594.345C214.731 593.404 215.672 592.464 216.641 591.494C217.564 587.83 217.564 587.83 218.066 584.368C219.007 585.309 219.948 586.249 220.917 587.218C220.447 588.159 219.976 589.1 219.492 590.069C220.432 590.069 221.373 590.069 222.342 590.069C222.43 588.952 222.519 587.835 222.609 586.684C222.992 585.449 223.374 584.215 223.767 582.943C227.242 581.339 227.242 581.339 230.894 580.092C231.834 578.681 232.775 577.27 233.744 575.816Z" fill="#181717"/>
<path d="M659.901 407.632C660.842 408.103 661.782 408.573 662.752 409.057C661.857 413.232 660.491 416.698 658.476 420.46C657.359 420.43 656.242 420.401 655.091 420.371C651.376 420.193 651.376 420.193 648.499 421.885C648.499 420.944 648.499 420.004 648.499 419.035C647.411 419.769 646.324 420.504 645.203 421.262C643.939 421.938 642.675 422.614 641.372 423.31C639.961 422.84 638.55 422.37 637.097 421.885C640.826 419.461 644.572 417.063 648.321 414.67C649.384 413.978 650.448 413.286 651.544 412.573C652.564 411.926 653.584 411.278 654.634 410.611C655.575 410.006 656.515 409.402 657.484 408.779C658.282 408.4 659.079 408.022 659.901 407.632Z" fill="#14110F"/>
<path d="M866.565 353.471C868.447 353.942 870.328 354.412 872.266 354.896C872.266 355.837 872.266 356.778 872.266 357.747C873.207 357.747 874.148 357.747 875.117 357.747C877.967 362.023 877.967 362.023 877.7 364.963C876.542 367.724 876.542 367.724 872.266 370.575C871.473 369.311 870.679 368.047 869.861 366.744C866.881 362.247 863.365 358.604 859.439 354.896C861.791 354.896 864.142 354.896 866.565 354.896C866.565 354.426 866.565 353.956 866.565 353.471Z" fill="#0F0E0E"/>
<path d="M537.327 543.034C539.249 543.942 541.156 544.882 543.029 545.885C543.029 549.177 543.029 552.47 543.029 555.862C537.384 553.04 531.74 550.218 525.925 547.31C526.866 546.84 527.807 546.37 528.776 545.885C528.776 544.944 528.776 544.004 528.776 543.034C532.412 541.217 533.526 541.805 537.327 543.034Z" fill="#EDE3DC"/>
<path d="M540.178 500.276C541.589 502.157 543 504.039 544.454 505.977C539.75 510.68 535.047 515.384 530.201 520.23C529.731 518.819 529.26 517.408 528.776 515.954C527.835 515.484 526.894 515.013 525.925 514.529C530.629 509.825 535.332 505.122 540.178 500.276Z" fill="#D5D1CE"/>
<path d="M300.732 550.161C301.673 550.161 302.614 550.161 303.583 550.161C303.583 551.102 303.583 552.042 303.583 553.011C304.523 553.482 305.464 553.952 306.433 554.437C306.904 555.377 307.374 556.318 307.859 557.287C301.744 560.58 295.63 563.872 289.33 567.264C289.8 564.442 290.271 561.62 290.755 558.713C291.696 558.242 292.637 557.772 293.606 557.287C293.606 556.347 293.606 555.406 293.606 554.437C295.958 553.966 298.309 553.496 300.732 553.011C300.732 552.071 300.732 551.13 300.732 550.161Z" fill="#E7DED6"/>
<path d="M380.548 520.23C377.725 521.641 377.725 521.641 374.846 523.081C375.317 524.492 375.787 525.903 376.272 527.356C373.92 527.827 371.568 528.297 369.145 528.782C369.145 529.722 369.145 530.663 369.145 531.632C367.264 531.632 365.383 531.632 363.444 531.632C363.444 530.692 363.444 529.751 363.444 528.782C362.033 528.782 360.622 528.782 359.168 528.782C359.168 524.498 361.94 523.16 364.87 520.23C370.464 519.09 375.094 518.267 380.548 520.23Z" fill="#F5ECE4"/>
<path d="M654.2 399.08C655.611 399.551 657.022 400.021 658.476 400.506C649.645 407.048 640.806 413.353 631.395 419.034C630.455 418.094 629.514 417.153 628.545 416.184C630.379 414.75 632.222 413.327 634.068 411.908C635.093 411.114 636.118 410.321 637.174 409.503C639.947 407.632 639.947 407.632 642.798 407.632C642.798 406.691 642.798 405.751 642.798 404.782C643.738 403.841 644.679 402.9 645.648 401.931C647.059 401.931 648.47 401.931 649.924 401.931C651.335 400.99 652.746 400.05 654.2 399.08Z" fill="#1A1715"/>
<path d="M533.052 515.954C533.992 516.424 534.933 516.895 535.902 517.379C535.902 519.261 535.902 521.142 535.902 523.081C534.002 524.981 532.101 526.881 530.201 528.782C530.201 530.663 530.201 532.544 530.201 534.483C526.909 533.542 523.616 532.601 520.224 531.632C522.232 527.05 524.647 524.047 528.241 520.586C529.142 519.712 530.042 518.837 530.969 517.936C532 516.955 532 516.955 533.052 515.954Z" fill="#0E0B08"/>
<path d="M528.776 515.954C528.142 523.137 524.909 526.468 520.224 531.632C521.635 532.103 523.046 532.573 524.5 533.058C524.03 534.469 523.559 535.88 523.075 537.333C522.134 537.333 521.193 537.333 520.224 537.333C515.734 529.907 515.734 529.907 516.661 525.04C519.512 520.526 523.099 515.954 528.776 515.954Z" fill="#E2DFDC"/>
<path d="M578.661 558.713C582.188 560.124 582.188 560.124 585.787 561.563C584.376 562.269 584.376 562.269 582.936 562.989C584.347 564.4 585.758 565.811 587.212 567.264C586.742 568.205 586.271 569.146 585.787 570.115C582.842 570.705 582.842 570.705 579.284 571.006C577.518 571.166 577.518 571.166 575.715 571.329C574.351 571.433 574.351 571.433 572.959 571.54C572.489 570.129 572.019 568.718 571.534 567.264C573.536 564.038 576.09 561.533 578.661 558.713Z" fill="#E9E2D9"/>
<path d="M307.859 544.46C308.329 545.4 308.799 546.341 309.284 547.31C310.695 547.781 312.106 548.251 313.56 548.736C313.089 550.617 312.619 552.498 312.134 554.437C309.312 554.907 306.49 555.377 303.583 555.862C303.583 553.981 303.583 552.099 303.583 550.161C302.642 550.161 301.701 550.161 300.732 550.161C301.203 551.572 301.673 552.983 302.158 554.437C300.747 553.966 299.336 553.496 297.882 553.011C297.882 552.071 297.882 551.13 297.882 550.161C296 549.691 294.119 549.22 292.181 548.736C292.651 547.795 293.121 546.854 293.606 545.885C294.076 546.355 294.547 546.826 295.031 547.31C297.711 547.219 297.711 547.219 300.732 546.776C301.761 546.647 302.79 546.519 303.85 546.386C306.453 546.131 306.453 546.131 307.859 544.46Z" fill="#F6EDE6"/>
<path d="M601.465 608.598C605.084 609.147 606.778 609.597 609.282 612.345C609.877 613.254 610.472 614.164 611.085 615.101C611.695 616.014 612.305 616.927 612.934 617.868C613.382 618.571 613.83 619.275 614.292 620C612.333 622.851 612.333 622.851 610.016 625.701C609.076 625.701 608.135 625.701 607.166 625.701C606.784 624.084 606.402 622.467 606.008 620.802C605.449 619.126 604.891 617.45 604.315 615.724C602.904 615.254 601.493 614.783 600.04 614.299C600.51 612.417 600.98 610.536 601.465 608.598Z" fill="#0A0A0A"/>
<path d="M685.556 570.115C686.026 571.056 686.496 571.996 686.981 572.966C688.862 572.025 690.743 571.084 692.682 570.115C694.567 577.185 694.234 584.241 694.107 591.494C691.236 587.806 688.769 584.157 686.624 580.003C685.864 578.567 685.864 578.567 685.088 577.102C684.13 574.391 684.13 574.391 685.556 570.115Z" fill="#110F0E"/>
<path d="M629.97 419.034C630.911 419.505 631.851 419.975 632.821 420.46C632.821 423.488 632.821 423.488 631.395 427.586C627.835 430.8 623.987 433.491 619.993 436.138C618.582 434.256 617.171 432.375 615.717 430.437C616.627 429.733 617.536 429.029 618.473 428.304C619.651 427.391 620.829 426.478 622.042 425.537C623.216 424.628 624.39 423.718 625.6 422.781C628.367 420.694 628.367 420.694 629.97 419.034Z" fill="#E3DCDA"/>
<path d="M240.871 729.747C242.24 729.966 243.609 730.184 245.019 730.41C251.427 731.325 257.838 731.657 264.299 731.974C266.067 732.066 266.067 732.066 267.871 732.161C270.748 732.31 273.625 732.455 276.503 732.598C276.503 733.068 276.503 733.538 276.503 734.023C274.787 734.093 273.071 734.163 271.303 734.234C269.057 734.341 266.812 734.449 264.566 734.557C263.434 734.602 262.303 734.646 261.137 734.691C254.601 734.761 254.601 734.761 249.423 738.299C244.256 738.477 244.256 738.477 239.446 738.299C240.857 737.358 242.268 736.417 243.722 735.448C242.311 734.508 240.9 733.567 239.446 732.598C239.916 731.657 240.386 730.716 240.871 729.747Z" fill="#D5CEC7"/>
<path d="M776.773 384.828C780.536 386.239 784.299 387.65 788.175 389.103C786.572 392.578 786.572 392.578 783.899 396.23C779.356 397.388 779.356 397.388 775.348 397.655C775.242 392.891 775.254 389.383 776.773 384.828Z" fill="#0C0B0C"/>
<path d="M525.925 533.057C530.158 534.469 534.391 535.88 538.753 537.333C538.282 538.274 537.812 539.215 537.327 540.184C534.011 541.167 530.685 542.115 527.35 543.035C525.939 543.975 524.528 544.916 523.075 545.885C522.134 545.415 521.193 544.944 520.224 544.46C520.759 541.698 520.759 541.698 521.649 538.759C522.59 538.288 523.531 537.818 524.5 537.333C524.97 535.922 525.441 534.511 525.925 533.057Z" fill="#E7E0D9"/>
<path d="M326.387 534.483C328.378 537.271 330.289 540.119 332.088 543.034C327.915 544.426 325.024 544.577 320.686 544.46C320.686 543.519 320.686 542.578 320.686 541.609C318.805 540.668 316.923 539.728 314.985 538.759C318.617 533.311 320.128 532.396 326.387 534.483Z" fill="#F6EDE5"/>
<path d="M659.901 524.506C661.782 524.976 663.664 525.446 665.602 525.931C666.543 525.461 667.483 524.99 668.453 524.506C668.923 526.387 669.393 528.268 669.878 530.207C670.818 530.207 671.759 530.207 672.728 530.207C672.009 535.549 671.187 540.649 669.878 545.885C666.585 538.83 663.293 531.775 659.901 524.506Z" fill="#0E0B0B"/>
<path d="M751.118 353.471C751.118 355.353 751.118 357.234 751.118 359.172C749.237 359.172 747.356 359.172 745.417 359.172C745.417 360.113 745.417 361.054 745.417 362.023C746.358 362.493 747.299 362.964 748.268 363.448C746.188 363.286 744.11 363.104 742.032 362.914C740.296 362.765 740.296 362.765 738.525 362.613C735.44 362.023 735.44 362.023 732.59 359.172C734.872 358.213 737.16 357.265 739.449 356.322C740.722 355.793 741.995 355.263 743.307 354.718C746.843 353.471 746.843 353.471 751.118 353.471Z" fill="#E1D9D3"/>
<path d="M273.652 577.241C274.122 578.182 274.593 579.123 275.077 580.092C273.858 582.815 273.858 582.815 271.96 585.882C271.047 587.406 271.047 587.406 270.117 588.961C267.553 591.96 266.021 592.161 262.25 592.92C260.419 595.747 260.419 595.747 259.399 598.621C257.988 597.21 256.577 595.799 255.124 594.345C266.899 582.306 266.899 582.306 273.652 577.241Z" fill="#13120E"/>
<path d="M364.87 521.655C364.87 522.596 364.87 523.537 364.87 524.506C362.988 524.976 361.107 525.447 359.169 525.931C359.169 526.872 359.169 527.813 359.169 528.782C355.406 528.782 351.643 528.782 347.767 528.782C347.767 527.841 347.767 526.9 347.767 525.931C346.826 525.461 345.885 524.99 344.916 524.506C347.436 523.749 349.961 523.01 352.488 522.279C353.893 521.865 355.299 521.452 356.747 521.026C360.594 520.23 360.594 520.23 364.87 521.655Z" fill="#DCD7D4"/>
<path d="M303.583 722.621C304.523 723.561 305.464 724.502 306.433 725.471C303.611 725.942 300.789 726.412 297.882 726.896C297.411 730.659 296.941 734.422 296.456 738.299C295.516 738.299 294.575 738.299 293.606 738.299C293.606 737.358 293.606 736.417 293.606 735.448C292.195 735.448 290.784 735.448 289.33 735.448C289.33 734.037 289.33 732.626 289.33 731.172C287.919 730.702 286.508 730.232 285.054 729.747C291.169 727.395 297.283 725.044 303.583 722.621Z" fill="#E1D9D2"/>
<path d="M474.616 520.23C478.378 520.23 482.141 520.23 486.018 520.23C485.548 522.582 485.077 524.933 484.593 527.356C480.584 528.247 480.584 528.247 476.041 528.782C474.63 527.841 473.219 526.9 471.765 525.931C471.765 524.99 471.765 524.05 471.765 523.08C472.706 523.08 473.646 523.08 474.616 523.08C474.616 522.14 474.616 521.199 474.616 520.23Z" fill="#ECE7E2"/>
<path d="M647.073 671.31C650.346 675.438 652.836 679.601 655.179 684.316C656.114 686.174 656.114 686.174 657.067 688.069C658.475 691.264 658.475 691.264 658.475 694.115C655.09 693.135 655.09 693.135 651.349 691.264C650.321 688.922 649.363 686.546 648.498 684.138C647.087 683.668 645.676 683.197 644.223 682.713C645.634 682.242 647.045 681.772 648.498 681.287C648.028 677.995 647.558 674.702 647.073 671.31Z" fill="#221F1E"/>
<path d="M330.663 706.943C333.015 707.413 335.366 707.883 337.789 708.368C337.316 712.751 336.89 714.95 333.781 718.167C330.663 719.77 330.663 719.77 327.456 719.325C326.633 719.001 325.81 718.678 324.962 718.345C326.447 715.793 327.931 713.241 329.416 710.689C330.775 708.598 330.775 708.598 330.663 706.943Z" fill="#EDE5DE"/>
<path d="M487.443 168.184C487.913 169.595 488.384 171.006 488.868 172.46C486.987 174.341 485.106 176.223 483.167 178.161C482.756 176.779 482.344 175.398 481.92 173.974C479.41 169.34 479.41 169.34 475.434 168.724C471.822 168.392 468.265 168.197 464.639 168.184C464.639 167.714 464.639 167.243 464.639 166.759C480.22 164.48 480.22 164.48 487.443 168.184Z" fill="#1E1A19"/>
<path d="M257.974 585.793C259.385 585.793 260.796 585.793 262.25 585.793C260.243 590.376 257.827 593.378 254.233 596.839C252.883 598.151 252.883 598.151 251.505 599.489C250.818 600.143 250.131 600.797 249.423 601.471C248.012 601.001 246.601 600.531 245.147 600.046C245.617 598.165 246.088 596.283 246.572 594.345C248.924 593.874 251.276 593.404 253.699 592.92C253.699 591.979 253.699 591.038 253.699 590.069C254.639 590.069 255.58 590.069 256.549 590.069C257.019 588.658 257.49 587.247 257.974 585.793Z" fill="#DED8CF"/>
<path d="M845.186 342.069C848.714 343.48 848.714 343.48 852.313 344.92C852.313 347.271 852.313 349.623 852.313 352.046C850.585 351.608 850.585 351.608 848.822 351.161C847.299 350.777 845.776 350.393 844.206 349.997C842.702 349.617 841.197 349.236 839.647 348.845C835.804 347.914 831.966 347.087 828.083 346.345C828.083 345.874 828.083 345.404 828.083 344.92C830.13 344.641 832.18 344.376 834.229 344.118C835.37 343.969 836.511 343.82 837.687 343.667C840.91 343.494 840.91 343.494 845.186 344.92C845.186 343.979 845.186 343.038 845.186 342.069Z" fill="#201C1A"/>
<path d="M323.537 708.368C323.537 709.779 323.537 711.19 323.537 712.644C321.193 714.67 321.193 714.67 318.103 716.563C317.094 717.203 316.086 717.842 315.046 718.501C312.135 719.77 312.135 719.77 307.859 718.345C314.381 708.127 314.381 708.127 323.537 708.368Z" fill="#151110"/>
<path d="M366.295 689.839C366.765 691.72 367.235 693.602 367.72 695.54C366.309 696.246 366.309 696.246 364.869 696.966C364.429 698.141 363.988 699.317 363.533 700.529C362.784 702.293 362.784 702.293 362.019 704.092C360.608 704.562 359.197 705.033 357.743 705.517C356.802 705.047 355.862 704.577 354.893 704.092C355.684 698.962 357.385 696.967 361.395 693.759C362.309 693.016 363.222 692.274 364.162 691.509C364.866 690.958 365.57 690.407 366.295 689.839Z" fill="#171310"/>
<path d="M681.28 386.253C681.458 389.638 681.458 389.638 681.28 393.379C678.43 396.23 678.43 396.23 674.154 396.586C669.878 396.23 669.878 396.23 667.027 393.379C668.863 392.184 670.705 390.998 672.55 389.816C673.575 389.155 674.601 388.493 675.657 387.812C678.43 386.253 678.43 386.253 681.28 386.253Z" fill="#E7E3DE"/>
<path d="M171.033 128.276C171.974 128.746 172.914 129.217 173.883 129.701C171.508 132.077 169.132 134.452 166.757 136.828C165.434 138.195 165.434 138.195 164.085 139.589C158.308 145.196 152.746 150.538 145.378 153.931C153.027 144.37 161.935 136.417 171.033 128.276Z" fill="#212121"/>
<path d="M259.399 571.54C261.751 572.011 264.103 572.481 266.526 572.966C266.055 575.788 265.585 578.61 265.1 581.517C266.041 581.988 266.982 582.458 267.951 582.943C263.266 584.082 261.238 584.506 256.549 582.943C257.499 579.142 258.449 575.341 259.399 571.54Z" fill="#F3ECE4"/>
<path d="M641.372 413.333C642.313 413.804 643.254 414.274 644.223 414.759C644.223 416.17 644.223 417.581 644.223 419.035C639.947 422.152 639.947 422.152 635.671 424.736C633.79 423.795 631.909 422.854 629.97 421.885C636.562 414.937 636.562 414.937 641.372 413.333Z" fill="#EAE2DC"/>
<path d="M238.02 614.299C238.491 615.24 238.961 616.18 239.446 617.149C239.005 618.178 238.564 619.207 238.109 620.267C236.279 625.112 236.394 629.115 236.595 634.253C235.654 633.783 234.714 633.312 233.745 632.828C233.745 631.887 233.745 630.946 233.745 629.977C231.393 631.858 229.041 633.74 226.618 635.678C228.739 627.407 233.162 621.175 238.02 614.299Z" fill="#181411"/>
<path d="M514.523 534.483C514.994 534.483 515.464 534.483 515.948 534.483C515.948 536.835 515.948 539.186 515.948 541.609C514.596 541.786 513.244 541.962 511.851 542.144C507.273 542.631 507.273 542.631 504.546 545.885C503.135 544.474 501.724 543.063 500.271 541.609C501.211 539.728 502.152 537.846 503.121 535.908C506.447 535.908 509.772 535.908 513.098 535.908C513.568 535.438 514.039 534.967 514.523 534.483Z" fill="#E3DCD6"/>
<path d="M525.925 501.701C528.747 503.112 531.569 504.523 534.477 505.977C533.118 507.853 531.751 509.722 530.379 511.589C529.619 512.631 528.858 513.673 528.074 514.746C525.925 517.379 525.925 517.379 523.075 518.805C522.604 517.394 522.134 515.983 521.649 514.529C523.06 514.058 524.471 513.588 525.925 513.103C525.528 510.678 525.528 510.678 525.124 508.204C524.918 506.528 524.712 504.853 524.5 503.126C524.97 502.656 525.441 502.186 525.925 501.701Z" fill="#111111"/>
<path d="M641.373 490.299C645.15 494.763 647.214 498.828 648.499 504.552C647.252 508.649 647.252 508.649 645.648 511.678C644.708 509.797 643.767 507.915 642.798 505.977C641.857 505.977 640.916 505.977 639.947 505.977C640.344 504.698 640.344 504.698 640.749 503.394C641.687 500.042 641.687 500.042 639.947 496C640.571 492.882 640.571 492.882 641.373 490.299Z" fill="#E8E2DB"/>
<path d="M550.155 490.299C551.566 491.71 552.977 493.121 554.431 494.575C550.757 498.348 547.424 501.622 543.029 504.552C542.054 501.991 542.054 501.991 541.604 498.851C543.335 496.423 543.335 496.423 545.79 494.218C547 493.105 547 493.105 548.234 491.969C548.868 491.418 549.502 490.867 550.155 490.299Z" fill="#E2DFDC"/>
<path d="M595.764 600.046C598.115 602.398 600.467 604.749 602.89 607.172C600.04 610.023 597.189 612.873 594.339 615.724C592.913 614.299 592.913 614.299 592.646 611.092C592.933 606.879 594.018 603.865 595.764 600.046Z" fill="#0E0E0F"/>
<path d="M458.937 588.644C459.408 589.584 459.878 590.525 460.363 591.494C461.303 591.965 462.244 592.435 463.213 592.92C460.63 597.195 460.63 597.195 457.512 601.471C456.101 601.471 454.69 601.471 453.236 601.471C452.078 599.066 452.078 599.066 451.811 595.77C455.285 591.851 455.285 591.851 458.937 588.644Z" fill="#F1E9E3"/>
<path d="M724.038 661.333C725.919 661.333 727.801 661.333 729.739 661.333C731.15 664.626 732.561 667.918 734.015 671.31C732.604 672.016 732.604 672.016 731.164 672.736C731.164 671.325 731.164 669.913 731.164 668.46C726.226 670.576 726.226 670.576 721.188 672.736C722.435 662.937 722.435 662.937 724.038 661.333Z" fill="#E7E0D7"/>
<path d="M425.354 631.046C426.457 631.928 426.457 631.928 427.581 632.828C426.17 634.944 426.17 634.944 424.731 637.103C423.79 637.103 422.849 637.103 421.88 637.103C421.88 638.044 421.88 638.985 421.88 639.954C415.11 638.885 415.11 638.885 411.903 635.678C421.025 629.714 421.025 629.714 425.354 631.046Z" fill="#E1DAD2"/>
<path d="M708.36 615.724C711.182 616.43 711.182 616.43 714.061 617.149C714.061 618.09 714.061 619.031 714.061 620C715.002 620 715.942 620 716.911 620C716.911 622.822 716.911 625.644 716.911 628.552C715.5 629.022 714.089 629.492 712.636 629.977C708.042 622.6 708.042 622.6 706.935 620C707.405 618.589 707.875 617.178 708.36 615.724Z" fill="#0F0F0D"/>
<path d="M548.729 467.494C549.611 468.406 550.493 469.317 551.402 470.256C554.183 473.251 554.183 473.251 557.281 474.621C556.811 476.502 556.34 478.383 555.856 480.322C553.974 480.792 552.093 481.263 550.155 481.747C547.839 477.828 547.839 477.828 545.879 473.195C547.037 469.81 547.037 469.81 548.729 467.494Z" fill="#E8E0D7"/>
<path d="M619.993 447.54C623.594 451.998 626.298 456.514 628.545 461.793C628.075 463.204 627.604 464.615 627.12 466.069C625.238 465.599 623.357 465.128 621.419 464.644C617.927 451.674 617.927 451.674 619.993 447.54Z" fill="#E1DEDB"/>
<path d="M520.224 250.851C521.635 252.732 523.046 254.613 524.5 256.552C523.559 258.433 522.618 260.314 521.649 262.253C518.827 262.253 516.005 262.253 513.098 262.253C513.454 258.155 513.454 258.155 514.523 253.701C517.463 251.741 517.463 251.741 520.224 250.851Z" fill="#EEE5DC"/>
<path d="M570.109 575.816C573.872 578.638 577.634 581.46 581.511 584.368C574.741 589.891 574.741 589.891 571.534 591.494C571.064 586.321 570.593 581.147 570.109 575.816Z" fill="#121211"/>
<path d="M279.353 551.586C274.793 555.496 270.795 558.186 265.101 560.138C265.101 556.341 265.231 553.692 266.526 550.161C271.894 548.372 274.182 549.633 279.353 551.586Z" fill="#12100F"/>
<path d="M570.109 343.494C573.401 346.316 576.694 349.138 580.086 352.046C579.615 353.457 579.145 354.868 578.661 356.322C578.605 358.697 578.596 361.074 578.661 363.448C573.589 357.169 570.109 351.697 570.109 343.494Z" fill="#13100E"/>
<path d="M763.946 729.747C766.768 731.158 766.768 731.158 769.647 732.598C771.058 731.657 772.469 730.716 773.923 729.747C774.393 733.039 774.863 736.332 775.348 739.724C772.526 741.135 772.526 741.135 769.647 742.575C767.766 738.342 765.884 734.108 763.946 729.747Z" fill="#0C0A0B"/>
<path d="M753.969 709.793C758.202 710.499 758.202 710.499 762.52 711.218C763.5 715.227 763.5 715.227 763.946 719.77C761.836 722.192 761.836 722.192 759.67 724.046C758.713 722.209 757.764 720.367 756.819 718.523C756.29 717.498 755.761 716.473 755.216 715.416C753.969 712.644 753.969 712.644 753.969 709.793Z" fill="#141412"/>
<path d="M344.916 685.563C347.268 685.563 349.619 685.563 352.042 685.563C352.513 686.974 352.983 688.385 353.468 689.839C349.235 693.367 349.235 693.367 344.916 696.966C343.975 696.025 343.035 695.084 342.065 694.115C343.006 691.293 343.947 688.471 344.916 685.563Z" fill="#13100F"/>
<path d="M173.883 667.034C174.353 667.034 174.824 667.034 175.308 667.034C175.249 668.798 175.191 670.562 175.13 672.379C175.114 677.035 175.512 680.168 178.159 684.138C176.748 684.138 175.337 684.138 173.883 684.138C173.413 689.312 172.942 694.485 172.458 699.816C171.987 699.816 171.517 699.816 171.032 699.816C170.741 688.414 170.84 678.064 173.883 667.034Z" fill="#ACA8A6"/>
<path d="M441.834 611.448C442.775 611.919 443.716 612.389 444.685 612.874C442.732 617.379 441.85 618.564 437.558 621.425C433.728 620.891 433.728 620.891 430.432 620C437.024 611.448 437.024 611.448 441.834 611.448Z" fill="#F5EDE5"/>
<path d="M598.614 406.207C604.315 412.977 604.315 412.977 604.315 416.184C601.964 415.714 599.612 415.243 597.189 414.759C596.248 416.64 595.308 418.521 594.339 420.46C593.868 420.46 593.398 420.46 592.913 420.46C592.557 416.54 592.557 416.54 592.913 411.908C595.764 408.523 595.764 408.523 598.614 406.207Z" fill="#E5DED8"/>
<path d="M679.854 735.448C683.624 739.903 685.333 744.125 686.981 749.701C685.57 750.171 684.159 750.642 682.705 751.126C681.748 749.289 680.799 747.447 679.854 745.603C679.325 744.578 678.796 743.553 678.251 742.497C677.004 739.724 677.004 739.724 677.004 736.874C677.945 736.403 678.885 735.933 679.854 735.448Z" fill="#1E1A18"/>
<path d="M632.821 647.08C636.031 650.912 638.354 653.703 639.947 658.483C637.595 658.953 635.244 659.423 632.821 659.908C632.35 658.967 631.88 658.027 631.395 657.057C630.455 656.587 629.514 656.117 628.545 655.632C629.015 653.751 629.486 651.869 629.97 649.931C630.911 649.931 631.852 649.931 632.821 649.931C632.821 648.99 632.821 648.05 632.821 647.08Z" fill="#171513"/>
<path d="M266.526 560.138C267.937 561.079 269.348 562.019 270.802 562.989C270.331 563.459 269.861 563.929 269.376 564.414C270.317 564.884 271.258 565.354 272.227 565.839C272.227 567.25 272.227 568.661 272.227 570.115C273.638 570.585 275.049 571.056 276.503 571.54C272.953 572.52 270.262 572.966 266.526 572.966C264.922 570.56 264.922 570.56 263.675 567.264C264.922 563.345 264.922 563.345 266.526 560.138Z" fill="#F8ECE2"/>
<path d="M495.995 524.506C497.876 525.446 499.757 526.387 501.696 527.356C501.696 529.708 501.696 532.06 501.696 534.483C497.463 533.777 497.463 533.777 493.144 533.057C492.674 531.176 492.203 529.295 491.719 527.356C493.13 526.416 494.541 525.475 495.995 524.506ZM497.42 525.931C498.845 528.782 498.845 528.782 498.845 528.782L497.42 525.931Z" fill="#F1ECE3"/>
<path d="M572.959 357.747C573.9 357.747 574.841 357.747 575.81 357.747C577.005 360.06 578.191 362.377 579.373 364.695C580.035 365.985 580.696 367.275 581.377 368.604C582.936 372 582.936 372 582.936 374.851C581.525 374.851 580.114 374.851 578.661 374.851C578.278 373.528 577.896 372.205 577.503 370.842C575.936 366.637 574.92 364.793 571.534 362.023C572.005 360.612 572.475 359.201 572.959 357.747Z" fill="#E2DCD7"/>
<path d="M758.245 725.471C759.656 725.471 761.067 725.471 762.52 725.471C764.747 729.48 764.747 729.48 766.796 734.023C766.326 735.434 765.856 736.845 765.371 738.299C763.96 738.299 762.549 738.299 761.095 738.299C761.095 736.888 761.095 735.477 761.095 734.023C759.684 734.023 758.273 734.023 756.819 734.023C756.819 733.082 756.819 732.142 756.819 731.172C757.76 731.172 758.701 731.172 759.67 731.172C759.2 729.291 758.729 727.41 758.245 725.471Z" fill="#DFD6CE"/>
<path d="M450.386 597.195C452.267 599.547 454.148 601.899 456.087 604.322C454.676 605.262 453.265 606.203 451.811 607.172C451.811 605.761 451.811 604.35 451.811 602.896C450.87 602.896 449.93 602.896 448.96 602.896C448.49 604.778 448.02 606.659 447.535 608.598C445.654 607.657 443.772 606.716 441.834 605.747C444.656 602.925 447.478 600.103 450.386 597.195Z" fill="#DCD4D0"/>
<path d="M464.639 592.92C467.706 597.52 467.775 599.025 467.489 604.322C463.726 603.852 459.964 603.381 456.087 602.897C458.909 599.604 461.731 596.312 464.639 592.92Z" fill="#1C1513"/>
<path d="M578.661 571.54C579.601 572.011 580.542 572.481 581.511 572.966C581.511 576.766 581.511 580.567 581.511 584.368C576.858 581.796 574.543 580.329 571.534 575.816C573.886 575.346 576.238 574.875 578.661 574.391C578.661 573.45 578.661 572.509 578.661 571.54Z" fill="#E3DED7"/>
<path d="M359.168 528.782C360.579 528.782 361.99 528.782 363.444 528.782C363.444 529.722 363.444 530.663 363.444 531.632C364.855 532.103 366.266 532.573 367.72 533.057C365.703 533.54 363.683 534.013 361.662 534.483C360.538 534.747 359.414 535.012 358.255 535.284C354.892 535.908 354.892 535.908 349.191 535.908C349.191 534.967 349.191 534.027 349.191 533.057C348.251 532.117 347.31 531.176 346.341 530.207C350.574 530.207 354.807 530.207 359.168 530.207C359.168 529.737 359.168 529.266 359.168 528.782Z" fill="#E7DED9"/>
<path d="M533.052 446.115C539.822 448.787 539.822 448.787 543.029 450.391C543.919 453.331 543.919 453.331 544.454 456.092C541.632 457.503 541.632 457.503 538.753 458.943C536.871 454.709 534.99 450.476 533.052 446.115Z" fill="#E8DED5"/>
<path d="M441.834 205.241C443.245 205.712 444.656 206.182 446.11 206.667C444.699 210.9 443.288 215.133 441.834 219.494C440.423 219.494 439.012 219.494 437.559 219.494C437.559 213.983 439.581 210.217 441.834 205.241Z" fill="#181817"/>
<path d="M381.973 657.057C382.443 657.998 382.913 658.939 383.398 659.908C384.809 660.378 386.22 660.849 387.674 661.333C383.911 664.155 380.148 666.977 376.271 669.885C376.271 664.516 376.607 662.884 379.122 658.483C379.122 659.423 379.122 660.364 379.122 661.333C380.063 661.333 381.003 661.333 381.973 661.333C381.973 659.922 381.973 658.511 381.973 657.057Z" fill="#161514"/>
<path d="M470.34 520.23C470.34 521.171 470.34 522.111 470.34 523.08C464.204 526.148 459.959 525.881 453.236 524.506C456.087 520.23 456.087 520.23 460.185 519.161C464.14 518.845 466.642 518.95 470.34 520.23Z" fill="#F5EBE7"/>
<path d="M340.64 698.391C341.581 698.861 342.521 699.332 343.491 699.816C342.08 703.109 340.669 706.401 339.215 709.793C340.155 710.264 341.096 710.734 342.065 711.218C340.654 712.159 339.243 713.1 337.789 714.069C337.789 712.188 337.789 710.306 337.789 708.368C335.908 707.898 334.027 707.427 332.088 706.943C334.939 704.092 337.789 701.241 340.64 698.391Z" fill="#DCDCD6"/>
<path d="M364.869 679.862C367.221 679.862 369.573 679.862 371.996 679.862C371.639 683.247 371.639 683.247 370.571 686.988C367.631 688.859 367.631 688.859 364.869 689.839C363.538 685.549 363.381 684.328 364.869 679.862Z" fill="#F2E9E3"/>
<path d="M567.258 551.586C571.021 553.468 574.784 555.349 578.66 557.287C577.249 558.698 575.838 560.109 574.385 561.563C572.974 561.563 571.563 561.563 570.109 561.563C569.962 560.652 569.815 559.741 569.663 558.802C569.34 557.832 569.017 556.862 568.684 555.862C567.273 555.392 565.861 554.921 564.408 554.437C565.348 554.437 566.289 554.437 567.258 554.437C567.258 553.496 567.258 552.555 567.258 551.586Z" fill="#E8DED6"/>
<path d="M337.789 531.632C339.201 532.103 340.612 532.573 342.065 533.057C342.065 533.998 342.065 534.939 342.065 535.908C343.947 536.378 345.828 536.849 347.766 537.333C344.068 541.032 341.497 541.181 336.364 541.609C335.424 540.669 334.483 539.728 333.514 538.759C334.925 538.759 336.336 538.759 337.789 538.759C337.789 536.407 337.789 534.055 337.789 531.632Z" fill="#EFE6E0"/>
<path d="M618.568 436.138C619.979 436.608 621.39 437.079 622.844 437.563C621.433 439.68 621.433 439.68 619.993 441.839C621.874 441.369 623.756 440.898 625.694 440.414C625.165 441.237 624.636 442.06 624.091 442.908C622.428 446.115 622.428 446.115 624.091 449.322C624.62 450.145 625.149 450.968 625.694 451.816C624.283 452.522 624.283 452.522 622.844 453.241C617.055 444.295 617.055 444.295 617.499 439.078C617.852 438.108 618.204 437.137 618.568 436.138Z" fill="#1B1813"/>
<path d="M436.133 252.276C437.074 252.276 438.015 252.276 438.984 252.276C440.821 254.77 440.821 254.77 442.725 257.977C443.361 259.035 443.997 260.094 444.652 261.184C445.133 262.007 445.614 262.83 446.11 263.678C444.699 265.089 443.288 266.5 441.834 267.954C440.874 266.148 439.926 264.336 438.984 262.52C438.455 261.511 437.926 260.503 437.38 259.464C436.133 256.552 436.133 256.552 436.133 252.276Z" fill="#E6DFD8"/>
<path d="M363.444 675.586C364.385 676.057 365.326 676.527 366.295 677.011C364.154 683.007 360.187 685.191 354.893 688.414C355.245 687.135 355.245 687.135 355.605 685.83C356.477 682.551 356.477 682.551 356.318 678.437C358.67 678.437 361.021 678.437 363.444 678.437C363.444 677.496 363.444 676.555 363.444 675.586Z" fill="#161514"/>
<path d="M486.017 354.896C489.087 358.634 490.864 361.516 491.719 366.299C489.837 364.888 487.956 363.477 486.017 362.023C485.547 362.493 485.077 362.964 484.592 363.448C482.702 363.964 480.802 364.442 478.891 364.873C479.458 360.76 480.017 359.426 483.256 356.678C484.167 356.09 485.079 355.502 486.017 354.896Z" fill="#121111"/>
<path d="M490.293 190.989C493.678 191.968 493.678 191.968 497.42 193.839C499.38 197.402 499.38 197.402 500.27 200.966C499.8 201.906 499.33 202.847 498.845 203.816C497.904 203.816 496.964 203.816 495.995 203.816C494.113 199.583 492.232 195.35 490.293 190.989Z" fill="#1A1715"/>
<path d="M352.042 701.241C353.468 706.943 353.468 706.943 352.042 711.218C351.102 711.218 350.161 711.218 349.192 711.218C348.721 712.159 348.251 713.1 347.767 714.069C345.885 712.658 344.004 711.247 342.065 709.793C345.358 706.971 348.65 704.149 352.042 701.241Z" fill="#1A1918"/>
<path d="M411.904 647.08C412.374 648.962 412.844 650.843 413.329 652.782C412.388 652.782 411.448 652.782 410.478 652.782C409.538 655.133 408.597 657.485 407.628 659.908C405.746 658.967 403.865 658.027 401.927 657.057C405.219 653.765 408.512 650.473 411.904 647.08Z" fill="#25201D"/>
<path d="M635.671 423.31C636.612 425.192 637.553 427.073 638.522 429.011C634.38 430.803 631.686 431.862 627.12 431.862C626.649 432.803 626.179 433.743 625.694 434.713C625.694 433.302 625.694 431.891 625.694 430.437C627.877 428.46 627.877 428.46 630.683 426.606C631.609 425.983 632.535 425.361 633.489 424.719C634.209 424.254 634.929 423.789 635.671 423.31Z" fill="#1F1714"/>
<path d="M665.602 394.805C667.013 395.275 668.424 395.745 669.878 396.23C668.937 396.23 667.996 396.23 667.027 396.23C667.027 397.171 667.027 398.111 667.027 399.08C669.379 399.08 671.73 399.08 674.153 399.08C671.055 402.644 668.837 403.978 664.177 404.782C662.751 400.506 662.751 400.506 664.087 397.388C664.837 396.109 664.837 396.109 665.602 394.805Z" fill="#F2EAE6"/>
<path d="M551.58 306.437C554.52 307.06 554.52 307.06 557.281 307.862C557.751 310.684 558.222 313.506 558.706 316.414C557.295 317.354 555.884 318.295 554.431 319.264C553.02 315.502 551.609 311.739 550.155 307.862C550.625 307.392 551.095 306.921 551.58 306.437Z" fill="#1B1511"/>
<path d="M769.647 742.575C773.923 747.92 773.923 747.92 773.923 751.126C772.982 751.126 772.041 751.126 771.072 751.126C770.602 752.067 770.131 753.008 769.647 753.977C768.236 753.977 766.825 753.977 765.371 753.977C764.302 751.483 764.302 751.483 763.946 748.276C766.707 745.069 766.707 745.069 769.647 742.575Z" fill="#E6DBD4"/>
<path d="M312.135 718.345C314.486 718.815 316.838 719.286 319.261 719.77C318.997 720.652 318.732 721.534 318.459 722.443C317.498 725.531 317.498 725.531 319.261 728.322C316.909 728.322 314.558 728.322 312.135 728.322C312.135 726.911 312.135 725.5 312.135 724.046C311.194 723.576 310.253 723.105 309.284 722.621C310.225 721.21 311.166 719.799 312.135 718.345Z" fill="#F5EEE6"/>
<path d="M299.307 560.138C302.425 561.207 302.425 561.207 305.008 562.989C305.949 563.459 306.889 563.929 307.859 564.414C307.388 565.825 306.918 567.236 306.433 568.69C305.14 568.249 303.847 567.808 302.514 567.353C299.071 566.228 295.704 565.227 292.181 564.414C295.388 562.098 295.388 562.098 299.307 560.138Z" fill="#181513"/>
<path d="M500.27 550.161C501.211 551.102 502.152 552.042 503.121 553.011C502.18 553.011 501.24 553.011 500.27 553.011C500.212 553.805 500.153 554.599 500.092 555.417C498.176 560.48 494.555 562.575 490.293 565.839C489.353 565.369 488.412 564.898 487.443 564.414C491.676 559.71 495.909 555.007 500.27 550.161Z" fill="#2A2725"/>
<path d="M875.117 396.23C876.72 401.575 876.72 401.575 875.117 404.782C876.057 404.782 876.998 404.782 877.967 404.782C877.967 408.074 877.967 411.366 877.967 414.759C875.615 412.407 873.264 410.055 870.841 407.632C873.513 399.437 873.513 399.437 875.117 396.23Z" fill="#141514"/>
<path d="M785.325 387.678C792.413 388.387 797.636 389.892 803.853 393.379C802.442 394.085 802.442 394.085 801.003 394.805C800.532 395.745 800.062 396.686 799.577 397.655C797.198 396.266 794.824 394.869 792.451 393.468C791.128 392.691 789.805 391.914 788.442 391.113C787.414 390.45 786.385 389.787 785.325 389.104C785.325 388.633 785.325 388.163 785.325 387.678Z" fill="#DDD3CC"/>
<path d="M558.707 320.69C559.647 320.69 560.588 320.69 561.557 320.69C561.557 322.101 561.557 323.512 561.557 324.966C563.438 325.436 565.32 325.906 567.258 326.391C567.258 328.272 567.258 330.154 567.258 332.092C565.377 332.092 563.495 332.092 561.557 332.092C560.146 328.8 558.735 325.507 557.281 322.115C557.752 321.645 558.222 321.174 558.707 320.69Z" fill="#0C0C0B"/>
<path d="M776.773 755.402C778.654 755.402 780.536 755.402 782.474 755.402C785.325 759.678 785.325 759.678 784.79 764.221C784.496 765.544 784.202 766.867 783.899 768.23C779.568 766.064 778.705 762.557 776.773 758.253C776.773 757.312 776.773 756.372 776.773 755.402Z" fill="#161712"/>
<path d="M316.41 729.747C319.261 732.598 319.261 732.598 319.439 736.339C319.38 737.456 319.321 738.573 319.261 739.724C314.985 739.724 314.985 739.724 310.709 736.874C312.134 732.598 312.134 732.598 316.41 729.747Z" fill="#100F11"/>
<path d="M232.319 718.345C233.73 718.345 235.141 718.345 236.595 718.345C236.595 719.756 236.595 721.167 236.595 722.621C238.476 723.091 240.358 723.561 242.296 724.046C242.296 725.457 242.296 726.868 242.296 728.322C237.486 726.632 234.247 725.078 230.894 721.195C231.364 720.255 231.835 719.314 232.319 718.345Z" fill="#130E0B"/>
<path d="M225.193 716.92C227.036 718.283 228.876 719.649 230.716 721.017C231.741 721.778 232.766 722.539 233.822 723.322C236.595 725.471 236.595 725.471 239.446 728.322C235.683 727.852 231.92 727.381 228.043 726.897C228.043 725.956 228.043 725.015 228.043 724.046C227.103 723.576 226.162 723.105 225.193 722.621C225.193 720.739 225.193 718.858 225.193 716.92Z" fill="#DED4CE"/>
<path d="M319.261 716.92C319.731 717.86 320.201 718.801 320.686 719.77C322.097 719.77 323.508 719.77 324.962 719.77C324.516 722.443 324.516 722.443 323.537 725.471C322.125 726.412 320.714 727.353 319.261 728.322C317.657 725.828 317.657 725.828 316.41 722.621C317.657 719.414 317.657 719.414 319.261 716.92Z" fill="#EBE2DB"/>
<path d="M249.423 600.046C249.893 600.987 250.363 601.927 250.848 602.896C248.026 607.13 245.204 611.363 242.296 615.724C241.826 613.843 241.356 611.961 240.871 610.023C242.603 607.284 242.603 607.284 245.058 604.678C245.864 603.804 246.671 602.929 247.502 602.028C248.136 601.374 248.77 600.72 249.423 600.046Z" fill="#1C1815"/>
<path d="M464.639 581.517C466.414 585.068 465.746 586.379 464.639 590.069C465.579 590.539 466.52 591.01 467.489 591.494C465.137 593.376 462.786 595.257 460.363 597.195C459.892 596.255 459.422 595.314 458.938 594.345C459.878 593.874 460.819 593.404 461.788 592.92C461.465 592.096 461.141 591.273 460.808 590.425C460.363 587.218 460.363 587.218 462.412 584.011C463.147 583.188 463.881 582.365 464.639 581.517Z" fill="#DAD6CF"/>
<path d="M478.891 575.816C478.891 580.092 478.891 580.092 477.466 582.854C475.626 586.104 475.626 586.104 476.041 591.494C474.63 591.024 473.219 590.554 471.765 590.069C471.295 588.658 470.824 587.247 470.34 585.793C472.071 583.193 472.071 583.193 474.527 580.537C475.333 579.65 476.14 578.763 476.971 577.848C477.605 577.178 478.238 576.507 478.891 575.816Z" fill="#13130F"/>
<path d="M678.429 562.989C681.499 566.726 683.276 569.608 684.13 574.391C683.19 574.391 682.249 574.391 681.28 574.391C680.809 575.332 680.339 576.272 679.854 577.241C677.004 569.224 677.004 569.224 677.004 564.414C677.474 563.943 677.945 563.473 678.429 562.989Z" fill="#E4DDD7"/>
<path d="M320.686 540.184C321.627 540.654 322.567 541.125 323.537 541.609C323.537 542.079 323.537 542.55 323.537 543.034C325.888 543.505 328.24 543.975 330.663 544.46C328.169 546.687 328.169 546.687 324.962 548.736C321.755 548.29 321.755 548.29 319.261 547.31C318.79 545.429 318.32 543.548 317.835 541.609C318.776 541.139 319.717 540.668 320.686 540.184Z" fill="#E6DDD6"/>
<path d="M580.085 535.908C584.361 537.333 584.361 537.333 587.212 541.609C587.768 544.445 588.255 547.296 588.637 550.161C587.226 550.866 587.226 550.866 585.787 551.586C584.826 549.78 583.878 547.968 582.936 546.152C582.407 545.144 581.878 544.135 581.333 543.096C580.085 540.184 580.085 540.184 580.085 535.908Z" fill="#E7E0D9"/>
<path d="M550.155 481.747C553.005 484.598 553.005 484.598 553.005 487.181C550.811 491.981 547.194 494.234 543.028 497.425C543.028 496.014 543.028 494.603 543.028 493.149C543.969 493.149 544.91 493.149 545.879 493.149C546.32 491.797 546.761 490.445 547.215 489.052C548.729 484.598 548.729 484.598 550.155 481.747Z" fill="#161512"/>
<path d="M659.901 407.632C660.841 408.103 661.782 408.573 662.751 409.057C662.516 409.939 662.281 410.821 662.039 411.73C661.217 414.703 661.217 414.703 661.326 417.609C657.563 416.669 653.801 415.728 649.924 414.759C656.694 409.236 656.694 409.236 659.901 407.632Z" fill="#1A1717"/>
<path d="M873.692 387.678C876.542 391.954 876.542 391.954 876.186 395.517C875.117 399.081 875.117 399.081 872.267 403.356C870.574 401.129 870.574 401.129 869.416 397.655C871.376 392.31 871.376 392.31 873.692 387.678Z" fill="#E4DDDA"/>
<path d="M773.923 751.126C777.695 754.899 779.053 759.054 781.049 763.954C778.697 763.954 776.346 763.954 773.923 763.954C772.719 759.139 772.343 755.866 773.923 751.126Z" fill="#DFDBD5"/>
<path d="M223.767 638.529C224.708 638.529 225.649 638.529 226.618 638.529C226.216 640.847 225.797 643.163 225.371 645.477C225.139 646.767 224.908 648.057 224.669 649.385C223.767 652.782 223.767 652.782 220.917 655.632C219.315 650.923 219.641 648.434 221.54 643.874C221.95 642.867 222.36 641.86 222.782 640.823C223.107 640.066 223.432 639.309 223.767 638.529Z" fill="#1C1816"/>
<path d="M253.698 557.287C255.58 558.228 257.461 559.169 259.399 560.138C258.929 561.079 258.459 562.019 257.974 562.989C257.033 562.989 256.093 562.989 255.123 562.989C255.594 564.4 256.064 565.811 256.549 567.264C255.138 567.735 253.727 568.205 252.273 568.69C251.382 564.592 251.382 564.592 250.848 560.138C251.788 559.197 252.729 558.257 253.698 557.287Z" fill="#0E0C0A"/>
<path d="M582.936 544.46C583.877 546.341 584.817 548.222 585.786 550.161C583.435 552.513 581.083 554.864 578.66 557.287C576.779 556.347 574.897 555.406 572.959 554.437C574.84 553.966 576.722 553.496 578.66 553.011C578.66 552.071 578.66 551.13 578.66 550.161C579.601 549.691 580.541 549.22 581.511 548.736C581.981 547.325 582.451 545.914 582.936 544.46Z" fill="#1F1D1F"/>
<path d="M468.915 309.287C470.326 309.287 471.737 309.287 473.19 309.287C474.17 314.009 474.17 314.009 474.616 319.264C472.567 322.026 472.567 322.026 470.34 323.54C469.399 321.189 468.458 318.837 467.489 316.414C468.43 315.473 469.371 314.532 470.34 313.563C469.869 312.152 469.399 310.741 468.915 309.287Z" fill="#EBE0D8"/>
<path d="M275.077 755.402C275.077 756.343 275.077 757.284 275.077 758.253C273.196 758.723 271.315 759.194 269.376 759.678C269.376 760.619 269.376 761.56 269.376 762.529C266.084 762.058 262.792 761.588 259.399 761.103C264.634 757.614 268.73 755.402 275.077 755.402Z" fill="#1F1D1B"/>
<path d="M222.342 712.644C223.283 713.114 224.224 713.584 225.193 714.069C224.722 717.361 224.252 720.654 223.767 724.046C222.827 724.046 221.886 724.046 220.917 724.046C219.976 724.987 219.036 725.927 218.066 726.897C219.135 715.851 219.135 715.851 222.342 712.644Z" fill="#E8E0D8"/>
<path d="M734.015 672.736C737.328 676.802 739.361 680.633 741.141 685.563C740.2 685.563 739.26 685.563 738.291 685.563C737.35 684.622 736.409 683.682 735.44 682.713C734.499 682.713 733.559 682.713 732.589 682.713C732.529 679.863 732.531 677.011 732.589 674.161C733.06 673.691 733.53 673.22 734.015 672.736Z" fill="#E5DDD4"/>
<path d="M468.914 571.54C471.91 572.147 471.91 572.147 474.616 572.966C473.02 574.399 471.414 575.823 469.805 577.241C468.912 578.035 468.019 578.829 467.099 579.647C464.639 581.517 464.639 581.517 461.788 581.517C463.605 577.464 465.282 574.195 468.914 571.54Z" fill="#110E12"/>
<path d="M530.201 510.253C533.319 510.698 533.319 510.698 535.902 511.678C533.95 516.184 533.067 517.369 528.776 520.23C528.776 518.819 528.776 517.408 528.776 515.954C527.835 515.484 526.894 515.013 525.925 514.529C527.707 512.302 527.707 512.302 530.201 510.253Z" fill="#D2D0CD"/>
<path d="M664.177 389.104C665.588 389.104 666.999 389.104 668.453 389.104C668.923 390.515 669.393 391.926 669.878 393.379C666.585 395.261 663.293 397.142 659.901 399.081C660.97 392.31 660.97 392.31 664.177 389.104Z" fill="#171513"/>
<path d="M444.685 272.23C447.507 272.23 450.329 272.23 453.236 272.23C453.236 277.931 453.236 277.931 451.098 280.425C450.393 281.013 449.687 281.601 448.96 282.207C447.549 278.914 446.138 275.622 444.685 272.23Z" fill="#E4DCD5"/>
<path d="M507.397 216.644C508.808 217.114 510.219 217.584 511.673 218.069C511.673 220.891 511.673 223.713 511.673 226.621C510.262 227.326 510.262 227.326 508.822 228.046C504.546 221.276 504.546 221.276 504.546 218.069C505.487 217.599 506.428 217.128 507.397 216.644Z" fill="#150F0A"/>
<path d="M510.247 540.184C515.503 541.431 515.503 541.431 520.224 543.034C520.224 543.975 520.224 544.916 520.224 545.885C519.372 545.62 518.519 545.356 517.641 545.083C514.289 544.145 514.289 544.145 510.247 545.885C508.836 544.944 507.425 544.004 505.972 543.034C507.383 542.094 508.794 541.153 510.247 540.184Z" fill="#1B1713"/>
<path d="M629.97 467.494C633.74 471.949 635.449 476.171 637.097 481.747C635.686 481.747 634.275 481.747 632.821 481.747C632.821 480.336 632.821 478.925 632.821 477.471C631.88 477.471 630.939 477.471 629.97 477.471C629.97 474.179 629.97 470.886 629.97 467.494Z" fill="#E1DBD6"/>
<path d="M530.201 431.862C531.612 432.803 533.023 433.743 534.477 434.713C534.744 439.167 534.744 439.167 534.477 443.264C533.066 443.97 533.066 443.97 531.626 444.69C530.215 441.397 528.804 438.105 527.351 434.713C528.291 433.772 529.232 432.831 530.201 431.862Z" fill="#E9E0D8"/>
<path d="M494.569 372C497.883 376.066 499.915 379.897 501.696 384.828C500.285 384.828 498.874 384.828 497.42 384.828C497.008 383.681 496.597 382.535 496.173 381.353C494.95 377.512 494.95 377.512 491.719 376.276C492.659 376.276 493.6 376.276 494.569 376.276C494.569 374.865 494.569 373.454 494.569 372Z" fill="#151311"/>
<path d="M476.041 333.517C477.922 333.517 479.804 333.517 481.742 333.517C484.771 342.782 484.771 342.782 483.167 349.195C480.816 344.022 478.464 338.848 476.041 333.517Z" fill="#E8E1DA"/>
<path d="M456.087 287.908C457.968 287.908 459.85 287.908 461.788 287.908C461.788 290.73 461.788 293.552 461.788 296.46C461.318 295.519 460.847 294.578 460.363 293.609C459.422 295.491 458.481 297.372 457.512 299.31C456.571 296.018 455.631 292.726 454.662 289.333C455.132 288.863 455.602 288.393 456.087 287.908Z" fill="#E7DED6"/>
<path d="M889.37 845.195C890.781 846.606 892.192 848.017 893.645 849.471C890.823 851.353 888.001 853.234 885.094 855.172C885.094 853.291 885.094 851.41 885.094 849.471C886.034 849.471 886.975 849.471 887.944 849.471C888.415 848.06 888.885 846.649 889.37 845.195Z" fill="#161616"/>
<path d="M179.584 659.908C181.099 662.58 181.099 662.58 182.435 665.609C181.965 666.55 181.494 667.49 181.01 668.46C179.584 667.034 179.584 667.034 179.495 663.382C179.525 662.236 179.554 661.089 179.584 659.908ZM175.309 667.034C176.72 667.034 178.131 667.034 179.584 667.034C179.584 668.445 179.584 669.856 179.584 671.31C178.644 671.31 177.703 671.31 176.734 671.31C176.264 673.662 175.793 676.014 175.309 678.437C173.746 673.748 174.169 671.719 175.309 667.034Z" fill="#F7EEEA"/>
<path d="M400.501 658.483C401.927 661.333 401.927 661.333 400.858 664.986C399.076 668.46 399.076 668.46 394.8 669.885C394.33 668.474 393.86 667.063 393.375 665.609C395.727 663.258 398.078 660.906 400.501 658.483Z" fill="#19130F"/>
<path d="M389.099 649.931C391.451 650.401 393.803 650.872 396.226 651.356C393.874 654.178 391.522 657 389.099 659.908C387.768 655.617 387.611 654.397 389.099 649.931Z" fill="#161413"/>
<path d="M601.465 608.598C604.137 608.954 604.137 608.954 607.166 610.023C608.947 612.963 608.947 612.963 610.016 615.724C606.281 615.724 603.589 615.278 600.04 614.299C600.51 612.417 600.98 610.536 601.465 608.598Z" fill="#191716"/>
<path d="M253.698 595.77C256.638 596.394 256.638 596.394 259.399 597.195C258.459 599.077 257.518 600.958 256.549 602.897C254.667 602.897 252.786 602.897 250.848 602.897C252.095 597.374 252.095 597.374 253.698 595.77Z" fill="#090A06"/>
<path d="M679.854 550.161C682.705 554.437 682.705 554.437 682.705 560.138C681.764 560.138 680.824 560.138 679.854 560.138C679.384 561.079 678.914 562.019 678.429 562.988C676.737 559.782 676.737 559.782 675.579 555.862C677.538 552.566 677.538 552.566 679.854 550.161Z" fill="#100F0F"/>
<path d="M488.868 523.08C491.69 523.08 494.512 523.08 497.42 523.08C496.714 523.668 496.009 524.256 495.282 524.862C492.526 527.53 492.526 527.53 493.144 533.057C489.616 531.646 489.616 531.646 486.018 530.207C487.429 529.737 488.84 529.266 490.293 528.782C489.823 526.9 489.353 525.019 488.868 523.08Z" fill="#E7E5DC"/>
<path d="M548.729 498.851C548.729 503.543 548.009 506.098 545.879 510.253C542.85 512.124 542.85 512.124 540.178 513.103C540.178 507.988 541.125 507.248 544.454 503.572C545.247 502.684 546.041 501.797 546.859 500.883C547.476 500.212 548.093 499.542 548.729 498.851Z" fill="#1F1C19"/>
<path d="M688.407 394.805C688.407 395.745 688.407 396.686 688.407 397.655C684.173 399.537 679.94 401.418 675.579 403.356C674.638 402.416 673.698 401.475 672.729 400.506C674.534 399.545 676.347 398.597 678.162 397.655C679.171 397.126 680.18 396.597 681.219 396.052C684.131 394.805 684.131 394.805 688.407 394.805Z" fill="#302824"/>
<path d="M498.845 362.023C499.315 363.434 499.786 364.845 500.27 366.299C498.389 368.18 496.508 370.062 494.569 372C493.629 369.178 492.688 366.356 491.719 363.448C495.246 364.154 495.246 364.154 498.845 364.874C498.845 363.933 498.845 362.992 498.845 362.023Z" fill="#E8DFD7"/>
<path d="M773.923 347.77C773.923 349.181 773.923 350.592 773.923 352.046C770.63 352.046 767.338 352.046 763.946 352.046C763.475 352.987 763.005 353.927 762.52 354.897C761.109 353.486 759.698 352.075 758.245 350.621C763.77 348.921 768.102 347.77 773.923 347.77Z" fill="#DDD8D3"/>
<path d="M515.948 240.874C517.83 241.344 519.711 241.814 521.649 242.299C523.818 246.419 524.5 249.024 524.5 253.701C523.559 253.701 522.619 253.701 521.649 253.701C519.768 249.468 517.887 245.235 515.948 240.874Z" fill="#13100E"/>
<path d="M297.882 726.896C298.823 726.896 299.763 726.896 300.733 726.896C301.203 728.308 301.673 729.719 302.158 731.172C304.296 733.548 304.296 733.548 306.434 735.448C305.493 736.389 304.552 737.33 303.583 738.299C300.733 736.606 300.733 736.606 297.882 734.023C297.526 730.192 297.526 730.192 297.882 726.896Z" fill="#F3EEE5"/>
<path d="M175.309 722.621C178.819 726.131 179.581 729.329 181.01 734.023C180.128 733.553 179.246 733.082 178.337 732.598C175.437 730.97 175.437 730.97 172.458 731.172C173.705 724.224 173.705 724.224 175.309 722.621Z" fill="#191616"/>
<path d="M330.663 706.943C333.015 707.413 335.366 707.883 337.789 708.368C337.789 710.249 337.789 712.131 337.789 714.069C335.908 713.599 334.026 713.128 332.088 712.644C331.618 713.584 331.147 714.525 330.663 715.494C328.888 711.944 329.556 710.633 330.663 706.943Z" fill="#F4EEE8"/>
<path d="M216.641 694.115C218.052 694.585 219.463 695.056 220.917 695.54C220.447 697.422 219.976 699.303 219.492 701.241C221.373 700.771 223.254 700.301 225.193 699.816C225.193 700.757 225.193 701.698 225.193 702.667C224.252 702.667 223.311 702.667 222.342 702.667C221.872 704.078 221.402 705.489 220.917 706.943C217.888 702.399 217.351 699.438 216.641 694.115Z" fill="#181414"/>
<path d="M381.973 664.184C384.325 666.536 386.676 668.887 389.099 671.31C386.277 672.721 386.277 672.721 383.398 674.161C382.458 672.75 381.517 671.339 380.548 669.885C379.607 669.415 378.666 668.944 377.697 668.46C379.108 667.049 380.519 665.638 381.973 664.184Z" fill="#DED6CF"/>
<path d="M620.171 618.486C621.523 618.985 622.876 619.485 624.269 620C622.858 620.706 622.858 620.706 621.418 621.425C619.803 624.3 619.803 624.3 618.568 627.126C616.686 624.304 614.805 621.482 612.867 618.575C615.717 617.149 615.717 617.149 620.171 618.486Z" fill="#E0D8D2"/>
<path d="M323.537 548.736C323.092 551.497 323.092 551.497 322.112 554.437C317.836 555.862 317.836 555.862 314.718 554.526C313.866 554.026 313.013 553.526 312.135 553.011C320.33 548.736 320.33 548.736 323.537 548.736Z" fill="#23211F"/>
<path d="M320.686 531.632C321.627 532.103 322.568 532.573 323.537 533.057C315.657 539.843 315.657 539.843 310.709 540.184C309.769 539.243 308.828 538.303 307.859 537.333C309.931 536.34 312.011 535.363 314.094 534.394C315.831 533.575 315.831 533.575 317.602 532.74C318.62 532.375 319.638 532.009 320.686 531.632Z" fill="#C7C3BF"/>
<path d="M604.315 416.184C606.197 416.654 608.078 417.125 610.017 417.609C610.017 418.55 610.017 419.491 610.017 420.46C610.957 420.46 611.898 420.46 612.867 420.46C612.397 423.282 611.926 426.104 611.442 429.011C608.128 424.945 606.096 421.114 604.315 416.184Z" fill="#282625"/>
<path d="M604.315 410.483C607.79 411.552 607.79 411.552 611.442 413.333C612.6 416.362 612.6 416.362 612.867 419.035C608.68 417.876 608.68 417.876 604.315 416.184C603.845 414.773 603.375 413.362 602.89 411.908C603.36 411.438 603.831 410.967 604.315 410.483Z" fill="#08090A"/>
<path d="M810.979 410.483C813.802 410.483 816.624 410.483 819.531 410.483C820.001 411.423 820.472 412.364 820.956 413.333C818.605 413.804 816.253 414.274 813.83 414.759C813.83 415.699 813.83 416.64 813.83 417.609C812.889 417.609 811.949 417.609 810.979 417.609C810.509 416.198 810.039 414.787 809.554 413.333C810.025 412.393 810.495 411.452 810.979 410.483Z" fill="#181818"/>
<path d="M688.406 745.425C689.817 745.425 691.228 745.425 692.682 745.425C694.014 749.716 694.171 750.936 692.682 755.402C691.741 755.402 690.801 755.402 689.832 755.402C688.317 752.017 688.317 752.017 686.981 748.276C687.451 747.335 687.922 746.394 688.406 745.425Z" fill="#E9E1D9"/>
<path d="M597.189 597.195C597.659 598.136 598.13 599.077 598.614 600.046C600.025 600.046 601.436 600.046 602.89 600.046C605.295 602.896 605.295 602.896 607.166 605.747C606.696 606.688 606.225 607.628 605.741 608.598C604.8 608.598 603.859 608.598 602.89 608.598C601.053 606.415 601.053 606.415 599.149 603.609C598.195 602.22 598.195 602.22 597.222 600.803C596.741 600.083 596.26 599.363 595.764 598.621C596.234 598.15 596.704 597.68 597.189 597.195Z" fill="#DDD9D5"/>
<path d="M226.618 588.644C227.559 589.584 228.499 590.525 229.469 591.494C227.352 595.022 227.352 595.022 225.193 598.621C223.311 597.21 221.43 595.799 219.492 594.345C221.843 592.463 224.195 590.582 226.618 588.644Z" fill="#E3DED7"/>
<path d="M283.629 570.115C284.96 574.406 285.118 575.626 283.629 580.092C281.747 579.151 279.866 578.211 277.928 577.241C279.353 572.966 279.353 572.966 283.629 570.115Z" fill="#1C1513"/>
<path d="M588.637 557.287C592.274 559.106 592.906 560.668 594.338 564.414C593.868 565.825 593.398 567.236 592.913 568.69C590.561 566.338 588.21 563.986 585.787 561.563C586.727 560.152 587.668 558.741 588.637 557.287Z" fill="#372D2A"/>
<path d="M595.764 558.713C599.291 560.124 599.291 560.124 602.89 561.563C602.89 562.504 602.89 563.445 602.89 564.414C601.949 564.414 601.009 564.414 600.039 564.414C599.569 565.354 599.099 566.295 598.614 567.264C597.674 567.264 596.733 567.264 595.764 567.264C595.293 568.205 594.823 569.146 594.338 570.115C594.691 568.836 594.691 568.836 595.051 567.532C595.922 564.252 595.922 564.252 595.764 560.138C595.764 559.668 595.764 559.197 595.764 558.713Z" fill="#E8DED5"/>
<path d="M669.878 545.885C671.289 547.766 672.7 549.648 674.154 551.586C673.213 553.468 672.272 555.349 671.303 557.287C667.027 550.517 667.027 550.517 667.027 547.31C667.968 546.84 668.909 546.37 669.878 545.885Z" fill="#DBD6CF"/>
<path d="M544.454 543.034C548.216 543.975 551.979 544.916 555.856 545.885C555.385 547.766 554.915 549.648 554.431 551.586C550.244 550.517 550.244 550.517 545.879 548.736C545.409 546.854 544.938 544.973 544.454 543.034Z" fill="#F5EEE9"/>
<path d="M523.075 525.931C523.545 526.872 524.015 527.812 524.5 528.782C527.386 529.711 527.386 529.711 530.201 530.207C530.201 531.618 530.201 533.029 530.201 534.483C526.909 533.542 523.616 532.601 520.224 531.632C521.165 529.751 522.105 527.869 523.075 525.931Z" fill="#26221E"/>
<path d="M672.728 401.931C672.258 403.812 671.788 405.694 671.303 407.632C668.951 408.103 666.6 408.573 664.177 409.057C663.706 408.117 663.236 407.176 662.751 406.207C669.522 401.931 669.522 401.931 672.728 401.931Z" fill="#1C1716"/>
<path d="M708.36 387.678C707.419 390.03 706.479 392.382 705.51 394.805C702.217 393.864 698.925 392.923 695.533 391.954C700.19 388.849 702.774 387.678 708.36 387.678Z" fill="#212221"/>
<path d="M581.511 364.874C582.451 364.874 583.392 364.874 584.361 364.874C585.302 368.166 586.243 371.458 587.212 374.851C585.801 374.851 584.39 374.851 582.936 374.851C581.995 372.028 581.055 369.206 580.085 366.299C580.556 365.828 581.026 365.358 581.511 364.874Z" fill="#101011"/>
<path d="M530.201 273.655C531.142 273.655 532.083 273.655 533.052 273.655C534.463 276.948 535.874 280.24 537.328 283.632C535.916 283.632 534.505 283.632 533.052 283.632C530.201 280.782 530.201 280.782 528.776 277.931C529.246 276.52 529.717 275.109 530.201 273.655Z" fill="#E1DDDA"/>
<path d="M190.986 734.023C191.251 735.302 191.251 735.302 191.521 736.606C192.347 740.098 192.347 740.098 195.262 744C193.381 744.47 191.499 744.941 189.561 745.425C188.582 741.875 188.136 739.184 188.136 735.448C189.076 734.978 190.017 734.508 190.986 734.023Z" fill="#F8F1EC"/>
<path d="M353.467 689.839C356.76 690.309 360.052 690.78 363.444 691.264C362.974 692.205 362.503 693.146 362.019 694.115C358.545 695.184 358.545 695.184 354.893 695.54C353.952 694.6 353.011 693.659 352.042 692.69C352.512 691.749 352.983 690.808 353.467 689.839Z" fill="#F3EDE7"/>
<path d="M370.571 685.563C372.452 686.034 374.333 686.504 376.272 686.989C375.802 688.87 375.331 690.751 374.847 692.69C371.319 691.279 371.319 691.279 367.72 689.839C368.661 688.428 369.602 687.017 370.571 685.563Z" fill="#1C1413"/>
<path d="M233.745 629.977C233.177 634.09 232.618 635.424 229.38 638.172C228.468 638.76 227.557 639.348 226.618 639.954C226.148 638.543 225.677 637.132 225.193 635.678C230.538 629.977 230.538 629.977 233.745 629.977Z" fill="#0D0907"/>
<path d="M198.113 612.874C199.053 613.344 199.994 613.814 200.963 614.299C199.322 617.816 198.045 620.068 195.262 622.851C194.792 620.499 194.322 618.147 193.837 615.724C195.248 614.783 196.659 613.843 198.113 612.874Z" fill="#12100F"/>
<path d="M480.317 558.713C483.345 559.247 483.345 559.247 486.018 560.138C483.678 563.018 481.301 565.868 478.891 568.69C478.421 568.69 477.951 568.69 477.466 568.69C477.288 565.305 477.288 565.305 477.466 561.563C478.407 560.623 479.347 559.682 480.317 558.713Z" fill="#13100E"/>
<path d="M323.537 525.931C327.299 526.401 331.062 526.872 334.939 527.356C330.733 530.16 328.474 531.138 323.537 531.632C322.126 530.691 320.715 529.751 319.261 528.782C320.672 528.782 322.083 528.782 323.537 528.782C323.537 527.841 323.537 526.9 323.537 525.931Z" fill="#191918"/>
<path d="M554.431 493.149C555.842 493.62 557.253 494.09 558.706 494.575C559.686 497.514 559.686 497.514 560.132 500.276C558.721 500.746 557.31 501.217 555.856 501.701C554.342 499.029 554.342 499.029 553.005 496C553.476 495.059 553.946 494.119 554.431 493.149Z" fill="#231F1E"/>
<path d="M637.097 481.747C638.508 483.628 639.919 485.51 641.372 487.448C639.961 489.565 639.961 489.565 638.522 491.724C636.641 490.313 634.759 488.902 632.821 487.448C633.291 486.037 633.761 484.626 634.246 483.172C635.187 482.702 636.127 482.232 637.097 481.747Z" fill="#E5DDD6"/>
<path d="M181.009 732.598C182.42 732.598 183.831 732.598 185.285 732.598C185.285 733.538 185.285 734.479 185.285 735.448C186.226 735.448 187.166 735.448 188.136 735.448C188.606 737.33 189.076 739.211 189.561 741.149C188.15 741.149 186.739 741.149 185.285 741.149C183.874 738.327 182.463 735.505 181.009 732.598Z" fill="#E7DFD9"/>
<path d="M668.453 714.069C670.68 716.385 670.68 716.385 672.728 719.77C672.283 724.402 672.283 724.402 671.303 728.322C669.297 724.576 667.729 721.129 667.027 716.92C667.498 715.979 667.968 715.038 668.453 714.069Z" fill="#161413"/>
<path d="M178.159 654.207C178.629 654.207 179.1 654.207 179.584 654.207C179.584 658.44 179.584 662.673 179.584 667.034C178.173 667.034 176.762 667.034 175.309 667.034C176.249 662.801 177.19 658.568 178.159 654.207Z" fill="#DDD3D2"/>
<path d="M466.064 581.517C467.475 581.988 468.886 582.458 470.34 582.942C469.894 585.704 469.894 585.704 468.914 588.644C467.503 589.114 466.092 589.584 464.639 590.069C465.109 587.247 465.579 584.425 466.064 581.517Z" fill="#EDECE6"/>
<path d="M468.915 577.241C470.796 578.182 472.677 579.123 474.616 580.092C473.675 581.973 472.734 583.855 471.765 585.793C469.884 583.912 468.002 582.03 466.064 580.092C467.005 579.151 467.945 578.211 468.915 577.241Z" fill="#D4D3CF"/>
<path d="M497.42 534.483C500.947 535.894 500.947 535.894 504.546 537.333C501.724 541.566 501.724 541.566 498.845 545.885C497.471 541.763 497.42 538.759 497.42 534.483Z" fill="#221E1B"/>
<path d="M534.477 505.977C535.888 505.977 537.299 505.977 538.753 505.977C538.282 508.329 537.812 510.68 537.328 513.103C535.446 512.633 533.565 512.163 531.626 511.678C532.567 509.797 533.508 507.915 534.477 505.977Z" fill="#E1DFDD"/>
<path d="M619.993 447.54C623.063 451.277 624.84 454.159 625.694 458.943C624.283 459.413 622.872 459.883 621.418 460.368C621.213 459.251 621.007 458.134 620.795 456.983C620.167 453.292 620.167 453.292 618.568 450.391C619.038 449.45 619.509 448.509 619.993 447.54Z" fill="#D5D2CD"/>
<path d="M627.12 456.092C629.001 456.092 630.882 456.092 632.821 456.092C632.35 459.855 631.88 463.617 631.395 467.494C628.699 464.094 627.086 461.691 625.694 457.517C626.165 457.047 626.635 456.577 627.12 456.092Z" fill="#151517"/>
<path d="M619.993 427.586C620.463 428.527 620.934 429.468 621.418 430.437C622.829 429.966 624.24 429.496 625.694 429.011C623.2 434.534 623.2 434.534 619.993 436.138C618.582 434.257 617.171 432.375 615.717 430.437C617.128 429.496 618.539 428.555 619.993 427.586Z" fill="#D6D0CC"/>
<path d="M592.913 391.954C594.324 391.954 595.735 391.954 597.189 391.954C599.119 395.815 598.707 399.094 598.614 403.356C595.544 399.619 593.767 396.737 592.913 391.954Z" fill="#1F1B19"/>
<path d="M521.649 253.701C522.59 255.112 523.531 256.523 524.5 257.977C522.807 260.115 522.807 260.115 520.224 262.253C516.394 262.52 516.394 262.52 513.098 262.253C513.568 260.842 514.038 259.431 514.523 257.977C517.345 258.683 517.345 258.683 520.224 259.402C520.694 257.521 521.165 255.64 521.649 253.701Z" fill="#E5DBD3"/>
<path d="M447.535 202.391C448.476 202.391 449.416 202.391 450.386 202.391C450.856 206.624 451.326 210.857 451.811 215.218C446.743 210.151 446.743 210.151 446.11 205.241C446.58 204.301 447.051 203.36 447.535 202.391Z" fill="#E1DCD7"/>
<path d="M339.215 712.644C340.64 716.92 340.64 716.92 339.304 720.037C338.554 721.316 338.554 721.316 337.789 722.621C336.378 720.739 334.967 718.858 333.514 716.92C335.395 715.509 337.276 714.097 339.215 712.644Z" fill="#181717"/>
<path d="M222.342 702.667C223.753 702.667 225.164 702.667 226.618 702.667C227.088 704.078 227.559 705.489 228.043 706.943C227.103 707.883 226.162 708.824 225.193 709.793C223.782 709.793 222.371 709.793 220.917 709.793C221.387 707.441 221.858 705.09 222.342 702.667Z" fill="#0B0A0B"/>
<path d="M186.711 635.678C189.78 639.415 191.558 642.297 192.412 647.081C188.136 645.655 188.136 645.655 186.354 642.181C185.285 638.529 185.285 638.529 186.711 635.678Z" fill="#E1DAD2"/>
<path d="M588.637 592.92C590.989 595.271 593.341 597.623 595.764 600.046C593.882 600.516 592.001 600.987 590.062 601.471C589.122 600.06 588.181 598.649 587.212 597.195C587.682 595.784 588.153 594.373 588.637 592.92Z" fill="#171615"/>
<path d="M582.936 587.218C584.817 589.1 586.699 590.981 588.637 592.92C587.226 593.86 585.815 594.801 584.361 595.77C582.95 593.418 581.539 591.067 580.085 588.644C581.026 588.173 581.967 587.703 582.936 587.218Z" fill="#191715"/>
<path d="M548.729 560.138C553.668 562.96 553.668 562.96 558.706 565.839C554.431 568.69 554.431 568.69 551.58 568.69C550.639 565.868 549.699 563.046 548.729 560.138Z" fill="#1B1816"/>
<path d="M312.135 554.437C310.493 557.954 309.216 560.206 306.434 562.988C305.023 561.577 303.611 560.166 302.158 558.713C308.928 554.437 308.928 554.437 312.135 554.437Z" fill="#191512"/>
<path d="M493.144 540.184C494.555 541.595 495.966 543.006 497.42 544.46C496.479 546.341 495.538 548.222 494.569 550.161C493.629 550.161 492.688 550.161 491.719 550.161C492.189 546.868 492.659 543.576 493.144 540.184Z" fill="#100E0C"/>
<path d="M503.121 535.908C504.062 535.908 505.002 535.908 505.972 535.908C506.862 539.293 506.862 539.293 507.397 543.034C506.456 543.975 505.516 544.916 504.546 545.885C503.135 544.474 501.724 543.063 500.271 541.609C501.211 539.728 502.152 537.846 503.121 535.908Z" fill="#D4CEC9"/>
<path d="M292.181 538.759C295.473 539.229 298.765 539.699 302.158 540.184C298.757 542.881 296.354 544.494 292.181 545.885C292.181 543.533 292.181 541.182 292.181 538.759Z" fill="#1C1B1B"/>
<path d="M514.523 527.356C515.934 528.767 517.345 530.178 518.799 531.632C516.447 532.103 514.095 532.573 511.672 533.057C512.613 531.176 513.554 529.295 514.523 527.356ZM507.396 531.632C508.808 532.103 510.219 532.573 511.672 533.057C511.202 534.469 510.732 535.88 510.247 537.333C509.306 535.452 508.366 533.571 507.396 531.632Z" fill="#F5EFE9"/>
<path d="M514.523 513.104C516.404 514.044 518.286 514.985 520.224 515.954C519.754 517.365 519.283 518.776 518.799 520.23C517.388 520.23 515.977 520.23 514.523 520.23C513.721 517.468 513.721 517.468 513.098 514.529C513.568 514.058 514.038 513.588 514.523 513.104Z" fill="#0B0B0B"/>
<path d="M570.109 497.425C569.168 499.307 568.227 501.188 567.258 503.126C564.906 502.656 562.555 502.186 560.132 501.701C560.602 500.76 561.073 499.82 561.557 498.851C564.534 497.89 566.978 497.425 570.109 497.425Z" fill="#E6DAD5"/>
<path d="M645.648 478.896C646.119 479.837 646.589 480.778 647.074 481.747C645.742 484.642 644.32 487.499 642.798 490.299C641.857 488.417 640.916 486.536 639.947 484.598C641.829 482.716 643.71 480.835 645.648 478.896Z" fill="#100D0E"/>
<path d="M527.351 436.138C530.42 439.875 532.198 442.757 533.052 447.54C531.641 447.07 530.23 446.6 528.776 446.115C527.083 441.75 527.083 441.75 525.925 437.563C526.396 437.093 526.866 436.623 527.351 436.138Z" fill="#1E1915"/>
<path d="M869.416 407.632C869.886 409.043 870.357 410.454 870.841 411.908C869.06 414.135 869.06 414.135 866.565 416.184C863.448 415.739 863.448 415.739 860.864 414.759C863.686 412.407 866.508 410.055 869.416 407.632Z" fill="#24201D"/>
<path d="M681.28 386.253C681.458 389.638 681.458 389.638 681.28 393.379C680.339 394.32 679.398 395.261 678.429 396.23C677.018 395.76 675.607 395.289 674.153 394.805C675.094 394.334 676.035 393.864 677.004 393.379C677.474 391.968 677.945 390.557 678.429 389.104C677.488 388.633 676.548 388.163 675.579 387.678C678.429 386.253 678.429 386.253 681.28 386.253Z" fill="#DBD7D1"/>
<path d="M682.705 389.104C685.997 389.104 689.29 389.104 692.682 389.104C692.682 390.515 692.682 391.926 692.682 393.379C690.099 394.359 690.099 394.359 686.981 394.805C684.487 392.845 684.487 392.845 682.705 390.529C682.705 390.058 682.705 389.588 682.705 389.104Z" fill="#E7DED5"/>
<path d="M688.406 380.552C691.257 381.977 691.257 381.977 692.682 384.828C689.86 385.768 687.038 386.709 684.13 387.678C683.19 386.738 682.249 385.797 681.28 384.828C684.665 382.601 684.665 382.601 688.406 380.552Z" fill="#E0D8D1"/>
<path d="M859.439 354.896C866.209 355.965 866.209 355.965 869.416 359.172C868.946 360.583 868.475 361.994 867.991 363.448C865.111 361.108 862.26 358.732 859.439 356.322C859.439 355.851 859.439 355.381 859.439 354.896Z" fill="#201E1C"/>
<path d="M484.592 181.011C487.662 184.749 489.439 187.631 490.293 192.414C488.412 191.473 486.531 190.532 484.592 189.563C484.592 186.741 484.592 183.919 484.592 181.011Z" fill="#E3DEDA"/>
</svg>
